<svg width="104" height="103" viewBox="0 0 104 103" fill="none" xmlns="http://www.w3.org/2000/svg">
<g clip-path="url(#clip0_18_518)">
<path fill-rule="evenodd" clip-rule="evenodd" d="M42.5453 1.15986C42.2386 1.92605 41.6252 1.46633 41.0119 1.31309C37.6383 1.15986 32.8846 1.46633 29.511 1.77281C28.591 1.77281 27.2109 2.53901 26.5975 1.46633C27.0575 0.700136 28.2843 0.853376 29.051 0.700136C32.5779 0.393656 36.2582 0.240417 40.0918 0.240417C41.1652 0.240417 42.6987 0.0871768 42.5453 1.15986Z" fill="#9EAF7C"/>
<path fill-rule="evenodd" clip-rule="evenodd" d="M91.4623 42.2281C92.689 43.454 94.0691 44.2202 94.9892 45.5994C96.9827 48.6642 97.136 54.4873 97.136 59.8507C97.136 61.5363 97.4427 63.222 97.5961 64.7544C97.7494 65.9803 97.4427 67.2062 97.5961 68.2789C97.9028 72.8761 98.0561 77.1668 98.3628 81.764C98.6695 85.595 99.4362 91.7246 98.5161 95.7088C98.0561 97.7009 96.216 100.153 94.6825 100.919C91.9223 102.298 85.7885 102.298 81.1882 101.992C77.0479 101.685 71.8342 100.306 70.1474 97.3944C69.2273 95.862 69.2273 93.7167 68.6139 91.7246C60.18 93.7167 47.299 93.5634 37.485 92.644C34.5714 92.3375 31.6579 91.5713 29.051 90.8051C26.4442 89.8857 23.684 88.6598 22.1505 87.4338C21.0771 86.5144 19.3903 84.8288 19.697 82.8367C19.8503 81.6107 22.1505 80.6913 23.3773 79.9251C27.6709 77.6265 32.2713 75.6344 37.7917 74.8682C37.7917 72.5696 37.7917 70.5775 37.1783 69.0451C28.7443 67.8192 19.0836 69.3515 13.4099 65.827C12.4898 65.2141 11.263 64.6011 10.6497 63.8349C9.7296 62.7622 9.26957 61.0766 8.50285 59.2377C6.50937 54.6405 6.35602 47.898 5.5893 42.2281C4.97592 38.2439 4.51589 34.5661 4.05585 30.5819C3.59582 26.5977 3.28913 21.694 4.36254 18.3227C4.51589 17.863 4.82258 17.25 5.12927 16.7903C5.5893 15.5644 6.35602 13.8788 6.9694 12.1931C8.04281 9.74128 9.26957 6.52324 12.0298 5.75704C13.7166 5.29732 15.8634 5.29732 17.8569 4.99084C27.5176 3.45845 38.7117 4.22464 49.2925 3.76493C51.4393 3.61169 53.7395 3.91817 55.8863 3.76493C60.4867 3.45845 64.4736 3.30521 69.2273 3.30521C71.3741 3.30521 73.6743 3.30521 75.8211 3.45845C76.7412 3.61169 77.3546 3.91817 77.968 3.91817C79.5014 4.07141 80.7282 3.91817 81.8016 4.07141C85.3285 4.53112 88.0887 5.6038 89.9288 8.20888C91.3089 10.201 92.0757 13.1126 92.3824 15.7176C93.1491 23.8393 91.3089 33.0337 91.4623 42.2281ZM87.6287 36.0985C87.322 36.405 85.9419 38.0906 85.6352 36.8647C85.4818 36.405 86.4019 36.0985 86.7086 35.6388C88.0887 34.2596 90.0822 32.8805 89.6221 30.5819C88.3954 31.8078 87.6287 33.3402 86.0952 34.2596C85.9419 34.1064 85.6352 34.1064 85.6352 33.7999C86.2486 32.574 87.322 31.1948 88.3954 30.1222C89.1621 29.2027 90.3889 28.743 89.9288 26.9041C88.7021 27.8236 87.6287 29.8157 86.0952 30.7351C85.1752 29.6624 86.7086 28.8962 87.322 28.2833C87.782 27.8236 88.2421 27.0574 88.7021 26.4444C89.6221 25.3717 90.5422 24.6055 90.2355 22.9199C89.4688 24.1458 88.5487 25.2185 87.6287 26.1379C87.322 26.5977 86.8619 27.2106 86.0952 27.2106C86.0952 27.0574 85.9419 27.0574 85.9419 26.9041C86.2486 25.525 87.4753 24.912 88.0887 23.9926C88.5487 23.3796 89.0088 22.6134 89.4688 22.0005C89.9288 21.3875 90.6956 20.7745 90.5422 19.7019C89.7755 20.1616 89.3155 20.9278 88.7021 21.5407C88.0887 22.1537 87.6287 23.0731 86.5553 23.2264C85.9419 22.1537 87.322 21.3875 87.9354 20.7745C89.1621 19.3954 90.6956 18.4759 90.2355 16.0241C89.7755 16.9435 89.1621 17.7097 88.7021 18.4759C87.782 18.7824 87.782 20.1616 86.5553 20.1616C86.5553 20.0083 86.2486 20.0083 86.2486 19.7019C86.4019 18.9357 87.322 18.3227 87.9354 17.5565C88.7021 16.4838 90.0822 14.4917 89.6221 13.1126C89.0088 13.7255 88.5487 15.7176 87.322 15.1047C87.4753 13.8788 88.8554 12.8061 89.3155 11.5802C89.1621 11.2737 89.0088 10.814 88.8554 10.3542C88.0887 10.814 88.2421 12.1931 87.0153 12.3464C85.9419 11.4269 87.9354 10.3542 87.9354 9.12832C86.8619 7.74916 85.4818 6.82972 83.7951 6.37C81.8016 5.91028 79.6547 6.21676 77.6613 6.06352C76.8945 6.06352 76.4345 5.6038 75.8211 5.45056C74.5944 5.29732 72.4475 5.29732 71.2208 5.29732C66.1604 4.8376 61.1 5.45056 56.6531 5.75704C53.7395 5.91028 50.826 5.91028 47.9124 5.91028C38.8651 6.37 30.7378 5.91028 22.6106 6.37C20.3104 6.52324 17.5502 7.1362 15.0967 7.28944C14.0233 7.74916 13.2565 7.74916 12.7965 7.9024C10.4963 8.51536 9.7296 11.4269 8.65619 13.8787C8.04281 15.4111 7.42943 16.9435 6.9694 18.4759C6.81606 19.0889 6.50937 19.3954 6.35602 20.0083C5.5893 22.3069 5.74264 25.3717 5.89599 28.2833C6.04933 31.3481 6.81606 34.2596 7.12275 37.1712C7.58278 42.5346 8.50285 47.4383 8.96288 52.0355C9.57626 57.7053 10.803 62.9155 14.79 64.9076C16.6301 65.827 19.0836 66.2868 21.6905 66.44C22.9172 65.6738 23.3773 63.6817 24.9107 63.5284C25.2174 65.0608 23.5306 65.3673 23.0706 66.5932C23.684 66.5932 24.144 66.7465 24.7574 66.7465C25.2174 66.1335 25.8308 65.5206 26.2908 64.9076C26.7509 64.2946 27.0575 63.222 28.131 63.222C28.591 64.7544 26.7509 65.6738 26.2908 66.7465C29.5111 67.2062 29.3577 63.6817 31.5045 63.5284C31.8112 64.2946 31.0445 64.9076 30.5845 65.3673C30.1244 65.9803 29.3577 66.44 29.3577 66.8997C29.9711 67.053 30.5845 67.2062 31.5045 67.053C32.1179 66.5932 32.578 65.9803 33.038 65.5206C33.498 65.0608 33.9581 64.1414 34.7248 63.9882C34.7248 64.1414 34.8781 64.1414 34.8781 64.1414C35.1848 65.3673 33.1913 66.2868 33.3447 67.053C33.9581 67.053 34.2647 67.2062 34.7248 67.2062C35.1848 66.44 35.7982 65.9803 36.2582 65.3673C36.7183 64.7544 37.0249 63.6817 37.7917 63.5284C38.7117 65.0608 36.5649 66.2868 35.9515 67.3594C36.5649 67.3594 37.3316 67.3594 37.945 67.3594C38.8651 65.9803 39.9385 64.4479 41.1653 63.5284C42.392 64.9076 39.1718 66.44 39.3251 67.3594C40.2452 67.3594 40.7052 67.6659 41.6253 67.5127C41.7786 67.3594 41.4719 67.053 41.7786 66.7465C43.0054 65.9803 43.6188 63.0687 45.3056 63.5284C44.8455 65.3673 43.3121 65.9803 42.6987 67.6659C43.3121 67.6659 43.7721 67.6659 44.3855 67.6659C44.3855 67.053 44.9989 66.8997 45.1522 66.1335C46.2256 65.5206 46.5323 63.5284 48.0658 63.6817C48.2191 65.5206 46.2256 66.1335 45.7656 67.6659C46.379 67.6659 46.9923 67.6659 47.6057 67.6659C48.2191 66.44 49.1392 65.827 49.7525 64.9076C50.2126 64.4479 50.5193 63.8349 51.1327 63.5284C52.2061 64.2946 50.9793 65.0608 50.5193 65.6738C49.9059 66.2868 49.2925 67.053 48.9858 67.6659C49.7526 67.6659 50.5193 67.6659 51.286 67.6659C51.746 66.8997 52.3594 66.2868 52.8194 65.5206C53.2795 64.9076 53.8928 63.9882 54.6596 63.6817C54.6596 63.8349 54.8129 63.8349 54.8129 63.8349C54.9663 64.6011 54.3529 65.3673 53.8928 65.9803C53.4328 66.5932 52.6661 67.2062 52.6661 67.6659C54.0462 67.6659 54.3529 66.44 54.9663 65.6738C55.5796 64.9076 56.193 63.9882 56.9597 63.3752C58.3398 64.2946 55.1196 66.8997 54.9663 67.6659C58.1865 67.6659 58.1865 64.6011 60.64 63.8349C61.4067 65.3673 58.4932 66.44 58.6465 67.3594C59.2599 67.3594 59.8733 67.3594 60.4867 67.3594C61.7134 66.2868 62.0201 64.4479 63.5536 63.6817C63.7069 63.8349 63.8603 63.9882 64.0136 64.1414C64.0136 64.7544 63.4002 65.2141 63.0935 65.6738C62.7868 66.1335 62.1735 66.8997 62.3268 67.2062C62.7868 67.2062 63.0935 67.2062 63.5536 67.2062C64.3203 65.9803 65.3937 64.9076 66.3138 63.6817C66.1604 62.9155 66.1604 61.996 65.8537 61.2298C61.8668 61.5363 57.2664 61.3831 52.9728 61.6896C50.3659 61.8428 47.7591 62.1493 44.8455 61.8428C37.945 61.2298 30.4311 61.5363 24.9107 61.0766C24.144 61.0766 23.3773 60.9234 22.9172 60.9234C22.4572 60.7701 22.3039 60.4636 21.6905 60.3104C21.0771 60.1572 20.6171 60.3104 20.157 60.3104C18.6236 60.0039 17.7035 59.391 16.6301 58.4715C16.4768 59.0845 16.6301 60.0039 15.71 59.8507C14.6366 58.778 16.9368 57.2456 15.5567 56.1729C14.9433 56.9391 15.0967 58.4715 14.0233 58.6248C12.7965 56.7859 16.0167 55.2535 14.79 53.7211C13.8699 54.6405 13.8699 56.3262 12.7965 56.9391C11.8764 56.0197 13.1032 54.1808 13.5632 53.4146C14.3299 52.3419 15.25 52.0355 14.79 51.116C13.8699 51.5757 14.0233 53.1081 13.1032 53.5679C12.0298 53.1081 12.7965 51.8822 13.1032 51.2693C13.5632 50.5031 14.1766 49.8901 14.4833 49.2771C14.3299 48.6642 14.1766 48.0512 14.1766 47.285C12.7965 47.898 13.2565 50.1966 11.7231 50.6563C10.6497 48.0512 14.6366 46.5188 13.7166 44.067C12.6432 44.3735 12.4898 46.3656 11.2631 46.9785C10.1896 46.6721 11.1097 45.1397 11.7231 44.2202C12.6432 42.9943 14.1766 42.3813 13.1032 40.5425C12.3365 41.6152 11.8764 42.9943 10.803 43.7605C9.7296 43.1475 11.1097 42.0749 11.5697 41.1554C12.3365 39.9295 13.2565 39.1633 12.7965 37.7842C11.8764 37.9374 11.5697 39.9295 10.343 40.236C9.26957 38.3971 12.1831 37.6309 12.6432 36.0985C12.7965 35.4856 12.6432 34.4129 12.4898 33.6467C11.5697 34.5661 11.1097 35.9453 10.0363 36.5582C9.11622 35.6388 10.1896 34.8726 10.6497 34.1064C11.7231 32.7272 12.9498 32.1143 12.3365 29.9689C11.7231 30.4286 11.4164 30.7351 10.803 31.5013C10.4963 31.961 9.26957 34.5661 8.96288 32.7272C8.65619 31.3481 11.7231 29.2027 12.3365 28.1301C12.3365 27.5171 12.3365 26.9041 12.3365 26.2912C11.8764 26.7509 10.803 27.3638 10.343 28.2833C10.0363 28.743 10.1896 29.5092 9.57626 29.5092C8.80954 29.356 9.26957 28.2833 9.42291 27.9768C10.0363 26.5977 11.8764 25.525 12.4898 24.4523C12.4898 23.8393 12.6432 23.0731 12.3365 22.6134C12.0298 23.2264 11.1097 24.1458 10.803 24.912C10.4963 25.3717 10.6497 26.1379 10.0363 26.1379C9.42291 26.1379 9.42291 25.3717 9.7296 24.6055C10.6497 22.3069 13.4099 20.7745 14.0233 18.4759C12.4898 18.9357 12.3365 20.7745 10.803 21.3875C10.1896 20.9278 10.803 20.0083 10.9564 19.7019C12.3365 17.863 14.0233 16.9435 16.3234 15.5644C17.8569 14.6449 19.0836 13.419 20.6171 12.6528C22.9172 11.5802 26.1375 11.4269 29.2044 11.2737C34.8781 10.814 40.7052 10.9672 46.839 10.9672C51.5927 10.9672 56.6531 11.2737 61.2534 10.9672C64.9337 10.6607 69.6873 10.3542 73.2143 10.814C74.7477 10.9672 75.6678 11.5802 76.8945 11.5802C83.335 12.1931 84.4084 17.0968 83.9484 23.0731C83.4884 28.5898 83.335 35.4856 83.7951 40.8489C84.8685 40.8489 86.0952 40.6957 86.8619 41.0022C87.4753 39.4698 89.4688 39.3166 89.3155 37.018C87.782 37.9374 87.1686 39.623 85.4818 40.236C85.1752 40.236 85.1752 39.9295 85.0218 39.7763C86.4019 38.2439 87.782 36.7115 89.4688 35.6388C89.3155 35.0258 89.7755 34.4129 89.6221 34.2596C89.0088 35.0258 88.3954 35.3323 87.6287 36.0985ZM75.5144 34.4129C77.6613 31.6546 79.6547 28.5898 81.3415 25.525C81.4949 22.7667 82.1083 17.7097 80.7282 15.5644C79.8081 14.1852 77.6613 14.032 75.5144 13.5723C74.5944 13.419 73.521 12.9593 72.7542 12.9593C69.534 12.6528 66.0071 12.8061 62.7868 12.9593C50.826 13.7255 35.3382 12.1931 24.7574 13.7255C20.0037 14.4917 16.0167 17.5565 14.79 21.5407C14.0233 24.2991 14.4833 27.9768 14.79 31.0416C14.9433 32.7272 14.9433 34.4129 14.9433 36.5582C17.0901 34.4129 18.9303 31.5013 20.9238 28.8962C22.4572 26.9041 23.9907 24.912 25.3708 22.9199C25.8308 22.3069 26.1375 21.081 27.2109 21.3875C27.3642 22.3069 26.5975 23.0731 26.1375 23.6861C22.6106 28.743 18.9303 33.6467 15.0967 38.2439C15.25 38.8568 15.25 39.4698 15.4034 40.0828C15.8634 39.4698 16.1701 38.8568 16.6301 38.0906C19.5437 35.0258 21.8438 31.1948 24.604 28.1301C25.3708 27.2106 26.2908 25.2185 27.6709 25.6782C27.9776 26.4444 27.0575 26.9041 26.5975 27.3639C25.2174 29.0495 23.9907 30.5819 22.7639 32.4208C21.9972 33.6467 20.9238 34.5661 20.0037 35.6388C18.7769 37.3244 17.7035 38.8568 16.4768 40.5425C16.1701 41.1554 15.5567 41.6152 15.5567 42.0749C15.5567 42.5346 15.71 43.6073 15.8634 44.5267C16.1701 46.8253 16.4768 50.0433 16.9368 51.729C17.2435 52.8017 18.1636 55.8664 18.9303 56.6326C20.0037 57.5521 21.3838 56.9391 23.0706 57.3988C23.684 57.5521 23.8373 57.8586 24.2973 58.0118C26.9042 58.778 31.6579 58.3183 35.7982 58.4715C37.6383 58.6248 39.4785 58.6248 41.0119 58.6248C45.6122 58.9312 50.2126 58.778 54.0462 58.4715C58.3398 58.165 62.4802 58.6248 66.0071 58.0118C65.8537 52.8017 66.6205 48.0512 68.7673 45.1397C71.2208 41.7684 76.1278 41.6152 81.4949 41.0022C81.0349 38.5504 81.0349 35.6388 81.0349 32.7272C80.2681 33.0337 79.9614 34.2596 79.3481 35.0258C78.7347 35.792 78.1213 36.8647 77.0479 36.7115C76.8945 35.6388 78.1213 34.8726 78.7347 34.2596C79.1947 32.8805 80.1148 31.961 81.0349 31.0416C81.0349 29.8157 81.0349 28.2833 81.0349 27.5171C79.5014 30.2754 77.6613 32.7272 75.9745 35.0258C75.3611 35.792 74.9011 37.018 73.8277 37.1712C73.6743 36.0985 74.9011 35.1791 75.5144 34.4129ZM87.9354 41.4619C88.2421 41.4619 88.7021 41.4619 89.0088 41.4619C89.0088 40.8489 89.3155 40.6957 89.1621 40.236C88.5487 40.5425 88.2421 40.8489 87.9354 41.4619ZM95.7559 79.6186C95.4492 75.0214 95.6026 69.9645 95.2959 65.2141C95.1426 64.1414 94.9892 62.9155 94.8359 61.6896C94.5292 56.1729 95.1426 50.1966 92.9957 46.8253C92.5357 46.0591 90.5422 44.067 89.4688 43.9137C88.8554 43.7605 88.0887 43.9137 87.322 43.7605C86.2486 43.454 84.4084 43.1475 83.0283 43.454C80.1148 44.2202 75.2078 43.7605 72.4476 45.2929C69.8407 46.8253 68.6139 51.116 68.3073 55.1003C68.1539 58.4715 68.7673 61.5363 69.074 64.6011C69.2273 66.2868 69.534 67.9724 69.534 69.8113C69.6873 71.6501 69.6873 73.3358 69.8407 75.1747C69.994 76.8603 70.3007 78.6992 70.3007 80.3848C70.6074 84.369 70.3007 88.5065 70.7608 91.8778C70.9141 92.9505 71.5275 95.862 71.9875 96.6282C72.4475 97.3944 74.1343 98.1606 75.5144 98.7736C76.8945 99.3866 78.428 99.693 80.1148 99.8463C83.335 100.153 88.0887 100.306 91.1556 99.9995C94.2225 99.693 95.4492 98.0074 96.3693 95.4023C97.2894 90.0389 96.0626 84.369 95.7559 79.6186ZM65.3937 66.5932C65.7004 66.5932 66.1604 66.5932 66.4671 66.5932C66.0071 65.9803 66.9271 65.3673 66.7738 64.7544C66.3138 65.5206 65.7004 65.9803 65.3937 66.5932ZM67.0805 68.7386C64.9337 68.8918 62.7868 68.8918 60.4867 69.0451C60.7934 71.3437 61.4067 73.3358 61.7134 75.6344C63.4002 76.0941 65.087 77.0135 66.6205 77.6265C67.0805 77.7797 67.5405 78.2395 68.0006 78.0862C67.3872 75.3279 67.8472 71.3437 67.0805 68.7386ZM40.2452 77.4733C43.0054 79.6186 47.4524 80.2316 51.746 80.8445C51.8994 80.538 51.8994 80.0783 52.2061 79.9251C54.1995 79.1589 56.3464 77.933 58.1865 76.8603C58.6465 76.5538 59.72 76.0941 59.4133 75.3279C57.4198 76.5538 54.6596 77.7797 52.2061 78.8524C51.5927 79.1589 50.3659 80.2316 49.7525 79.3121C50.826 77.933 52.9728 77.4733 54.6596 76.5538C55.4263 76.0941 56.3464 75.6344 57.1131 75.1747C57.8798 74.7149 59.2599 74.4085 58.9532 73.0293C57.1131 74.2552 55.5796 75.1747 53.4328 76.2473C53.1261 76.4006 50.2126 78.2395 49.9059 77.0135C49.7526 76.4006 51.4393 75.9409 52.0527 75.6344C53.7395 74.8682 55.273 74.102 56.6531 73.1825C57.5731 72.5696 58.9532 71.8034 58.3398 70.7307C57.7265 70.7307 57.1131 71.4969 56.4997 71.9566C55.1196 73.0293 53.2795 73.9487 51.286 74.7149C50.9793 74.8682 49.5992 75.6344 49.4459 74.8682C49.2925 74.2552 50.9793 73.7955 51.5927 73.489C54.1995 72.4163 56.3464 71.0372 57.8798 69.1983C56.8064 69.0451 56.193 69.3515 55.4263 69.3515C54.5062 69.9645 53.1261 71.0372 51.8994 71.8034C50.9793 72.2631 48.8325 74.102 48.0658 72.5696C48.8325 71.9566 49.9059 71.6501 50.826 71.0372C51.746 70.5775 52.6661 69.9645 53.2795 69.1983C48.5258 69.0451 43.4654 69.3516 39.0184 69.0451C40.2452 71.4969 39.9385 74.7149 40.2452 77.4733ZM52.9728 80.8445C56.3464 81.151 57.5731 79.4654 59.5666 78.3927C59.4133 77.933 59.8733 77.6265 59.5666 77.32C57.4198 78.5459 55.1196 79.7719 52.9728 80.8445ZM21.9972 83.7561C23.0706 86.2079 25.5241 87.2806 28.131 88.2C28.7443 85.1352 31.3512 83.9093 33.6514 82.5302C34.2647 82.0704 35.0315 81.151 35.7982 81.764C36.2582 82.5302 35.1848 82.8366 34.5714 83.1431C32.2713 84.5223 29.5111 86.0547 29.051 88.6598C29.5111 88.9662 30.2778 89.1195 30.8912 89.2727C32.2713 87.1274 34.4181 84.982 36.7183 83.4496C37.3316 83.1431 38.5584 81.9172 39.1718 82.9899C36.5649 84.982 33.8047 86.8209 32.1179 89.5792C33.038 89.8857 33.8047 90.1922 34.8781 90.3454C35.0315 88.9662 35.9515 88.5065 36.7183 87.5871C37.1783 86.9741 37.7917 86.5144 38.2517 86.0547C39.3251 84.982 40.3985 83.7561 41.7786 83.2964C41.7786 83.4496 41.932 83.4496 41.932 83.6029C41.7786 84.6755 40.7052 84.982 39.9385 85.595C38.2517 86.9741 36.8716 88.813 35.7982 90.4986C36.4116 90.4986 36.8716 90.6519 37.485 90.6519C38.5584 89.1195 39.7851 87.8936 41.1653 86.6676C42.2387 85.7482 43.0054 84.6755 44.3855 84.2158C44.9989 84.982 44.0788 85.595 43.6188 86.0547C42.0853 87.5871 40.0918 88.9662 38.8651 90.8051C39.7851 90.8051 40.3985 91.1116 41.3186 90.9584C41.4719 90.8051 41.4719 90.3454 41.6253 90.1922C42.852 88.6598 44.8455 87.1274 46.379 85.7482C46.839 85.2885 47.6057 84.2158 48.2191 85.1352C47.6057 86.3612 46.379 87.1274 45.3056 88.0468C44.2321 88.9662 43.3121 89.8857 42.392 90.9584C43.1587 90.9584 43.7721 90.9584 44.3855 91.1116C45.6122 89.426 47.7591 88.2 49.2925 86.6676C49.7525 86.2079 50.0592 85.1352 50.9793 85.4417C51.1327 86.9741 49.5992 87.7403 48.5258 88.5065C48.0658 88.9662 47.4524 89.2727 46.9923 89.7324C46.5323 90.1922 45.7656 90.8051 45.9189 91.1116C46.6857 91.1116 47.4524 91.4181 48.3724 91.2648C49.2925 89.7324 51.1327 88.813 52.3594 87.7403C52.9728 87.1274 53.5862 85.595 54.5062 86.5144C54.1995 87.5871 53.1261 88.3533 52.3594 88.9662C51.4393 89.7324 50.3659 90.1922 49.9059 91.1116C50.3659 91.1116 50.6726 91.1116 51.1327 91.1116C51.746 90.1922 52.6661 89.5792 53.4328 88.813C54.1995 88.0468 54.8129 86.8209 56.0397 86.6676C56.0397 86.8209 56.193 86.8209 56.193 86.9741C56.0397 87.8936 55.1196 88.5065 54.3529 89.1195C53.7395 89.7324 52.5128 90.3454 52.6661 90.9584C58.3398 90.9584 63.4002 90.3454 68.0006 89.2727C68.1539 86.0547 67.6939 83.6028 67.8472 80.3848C65.7004 79.4654 64.0136 78.0862 61.4067 77.4733C61.7134 80.6913 59.1066 82.2237 56.4997 82.5302C49.4459 83.2964 41.1652 81.151 37.945 78.0862C37.7917 77.7797 37.6383 77.4733 37.7917 76.8603H37.6383C31.6579 78.6992 26.4442 80.8445 21.9972 83.7561Z" fill="#9EAF7C"/>
<path fill-rule="evenodd" clip-rule="evenodd" d="M9.11623 5.45058C9.11623 6.06354 8.34951 6.21678 7.88947 6.52326C6.81606 7.28946 5.5893 8.9751 4.66924 10.5075C3.90251 12.1931 2.8291 14.032 2.67576 15.5644C2.52241 16.3306 3.13579 17.863 2.21572 18.1695C1.29565 17.5565 1.60234 16.3306 1.75569 15.4112C1.90903 12.6529 4.82258 7.90242 6.66272 6.21678C7.27609 5.60382 8.50285 4.37791 9.11623 5.45058Z" fill="#9EAF7C"/>
<path fill-rule="evenodd" clip-rule="evenodd" d="M91.6156 6.37001C93.6091 9.28156 94.6825 12.8061 94.6825 18.0162C94.6825 18.9357 94.9892 19.8551 94.2225 20.3148C93.1491 20.3148 93.6091 16.6371 93.6091 15.4112C93.4558 12.3464 92.229 9.4348 91.309 7.74916C91.1556 7.59592 90.5422 7.74916 90.5422 7.28944C90.5422 6.52325 90.8489 6.21677 91.6156 6.37001Z" fill="#9EAF7C"/>
<path fill-rule="evenodd" clip-rule="evenodd" d="M2.98242 6.82973C3.13577 7.44269 2.52239 7.74917 2.2157 8.20889C1.75567 8.97509 1.90901 10.201 1.14229 10.9672C0.988944 10.9672 0.835599 10.9672 0.682254 10.9672C0.222221 9.28157 1.29563 7.44269 2.2157 6.52325C2.52239 6.52325 2.67573 6.67649 2.98242 6.82973Z" fill="#9EAF7C"/>
<path fill-rule="evenodd" clip-rule="evenodd" d="M96.9827 9.74128C97.5961 10.201 97.2894 11.4269 97.4427 12.3464C97.5961 13.419 98.2095 16.4838 96.9827 16.1774C96.216 16.0241 96.676 14.3385 96.5227 13.7255C96.3693 12.6528 96.216 10.9672 96.0626 10.0478C96.216 10.0478 96.216 10.0478 96.216 9.89452C96.216 9.74128 96.3693 9.74128 96.3693 9.58804C96.676 9.74128 96.8293 9.74128 96.9827 9.74128Z" fill="#9EAF7C"/>
<path fill-rule="evenodd" clip-rule="evenodd" d="M99.2829 11.8866C99.4362 12.4996 99.4362 14.032 99.1295 14.4917C97.7494 14.7982 98.0561 11.1204 99.2829 11.8866Z" fill="#9EAF7C"/>
<path fill-rule="evenodd" clip-rule="evenodd" d="M58.7999 15.8709C59.1066 16.9436 57.8798 17.5565 57.2664 18.0162C55.4263 19.8551 53.5862 22.1537 51.746 24.1458C45.4589 30.7351 38.7117 37.018 32.7313 44.067C32.1179 44.68 31.5045 45.4462 30.8912 46.2124C30.4311 46.8253 30.1244 48.0512 29.051 47.898C28.8977 46.9786 29.6644 46.0591 30.2778 45.4462C31.9646 43.454 33.8047 41.4619 35.6448 39.4698C37.945 36.8647 40.7052 34.4129 43.1587 31.6546C45.4589 29.0495 48.2191 26.5977 50.6726 23.8394C51.8994 22.4602 52.9728 21.081 54.1995 19.7019C55.4263 18.3227 56.6531 16.9436 58.0332 15.8709C58.0332 15.7176 58.3398 15.5644 58.7999 15.8709Z" fill="#9EAF7C"/>
<path fill-rule="evenodd" clip-rule="evenodd" d="M40.5518 17.25C40.8585 17.25 41.1652 17.25 41.1652 17.4033C41.1652 18.4759 40.2452 19.0889 39.6318 19.7019C36.2582 23.0731 33.3447 27.0574 30.2778 30.8884C29.051 32.4208 27.9776 34.1064 26.7508 35.4856C26.1375 36.2518 25.3707 36.7115 24.7574 37.3244C24.2973 37.9374 24.144 39.0101 23.0706 38.8568C22.7639 38.0906 23.2239 37.4777 23.5306 37.018C24.144 36.2518 25.064 35.4856 25.8308 34.7194C27.9776 32.4208 29.8177 29.6625 31.8112 27.2106C34.7248 23.6861 37.485 20.3148 40.5518 17.25Z" fill="#9EAF7C"/>
<path fill-rule="evenodd" clip-rule="evenodd" d="M59.8733 22.4602C59.5666 23.6861 58.4932 25.0653 57.7264 26.1379C55.1196 29.2027 52.0527 32.2675 48.9858 35.0259C45.9189 37.9374 43.1587 40.849 40.0918 43.7605C39.6318 44.2202 39.1717 44.8332 38.7117 45.2929C38.405 45.7526 37.945 46.8253 37.1783 46.5188C36.8716 44.9864 38.405 44.067 39.3251 43.1476C42.2386 40.236 44.9988 37.3244 48.0657 34.5661C52.206 30.8884 56.193 26.9041 59.1065 22.3069C59.1065 22.0005 59.7199 22.1537 59.8733 22.4602Z" fill="#9EAF7C"/>
<path fill-rule="evenodd" clip-rule="evenodd" d="M70.3007 22.3069C70.454 22.3069 70.6074 22.3069 70.7607 22.3069C71.0674 24.2991 69.0739 25.6782 68.0005 26.9041C66.7738 28.2833 65.547 29.6625 64.4736 31.0416C62.0201 33.7999 59.4132 36.405 56.9597 39.0101C54.5062 41.7684 51.746 44.2202 49.4458 46.8253C47.6057 48.8174 45.7656 50.8095 44.2321 53.2614C43.7721 53.8743 43.4654 55.2535 42.392 55.2535C42.0853 54.1808 43.0054 52.8017 43.6187 51.8822C44.0788 51.2693 44.6921 50.6563 45.3055 50.0433C46.839 48.2045 48.3724 46.2124 50.0592 44.3735C54.5062 39.623 59.4132 35.1791 63.7069 30.2754C66.007 27.6703 68.4606 25.0653 70.3007 22.3069Z" fill="#9EAF7C"/>
<path fill-rule="evenodd" clip-rule="evenodd" d="M38.405 27.0574C37.7916 28.5898 36.7182 29.8157 35.4915 31.0416C32.7313 33.9532 30.1244 36.8647 27.6709 40.236C27.2109 40.6957 26.9042 41.9216 25.8307 41.6151C25.9841 40.0827 27.3642 38.8568 28.2843 37.6309C30.5844 34.5661 33.498 31.8078 35.9515 28.743C36.5649 27.9768 37.1783 27.2106 37.7916 26.7509C38.2517 26.7509 38.0983 27.0574 38.405 27.0574Z" fill="#9EAF7C"/>
<path fill-rule="evenodd" clip-rule="evenodd" d="M60.18 28.5898C60.0267 29.6625 58.9532 30.2754 58.3399 31.0416C57.7265 31.8078 57.1131 32.574 56.4997 33.3402C54.0462 36.405 50.9793 39.0101 48.2191 41.9216C47.6057 42.6878 46.9924 43.454 46.379 44.2202C45.7656 44.8332 45.1522 46.0591 44.0788 45.9059C43.7721 44.8332 44.9989 44.2202 45.6123 43.454C48.6791 39.9295 52.5128 36.5583 55.5797 32.8805C56.8064 31.3481 58.0332 29.6625 59.4133 28.5898C59.5666 28.2833 59.72 28.2833 60.18 28.5898Z" fill="#9EAF7C"/>
<path fill-rule="evenodd" clip-rule="evenodd" d="M66.4671 34.7194C66.4671 35.7921 65.3937 36.2518 64.7803 36.8647C61.7134 40.236 58.6465 43.6073 55.5796 47.1318C54.9662 47.7448 54.3529 48.511 53.7395 49.2772C53.2794 50.0433 52.5127 50.6563 52.0527 51.4225C51.8993 51.729 51.8993 52.8017 51.1326 52.6484C50.0592 52.3419 51.5927 50.5031 51.8993 50.0433C53.7395 47.7448 55.5796 45.4462 57.5731 43.3008C60.9467 39.9295 62.7868 37.1712 65.3937 34.5661C65.547 34.5661 66.1604 34.5661 66.4671 34.7194Z" fill="#9EAF7C"/>
<path fill-rule="evenodd" clip-rule="evenodd" d="M65.8537 40.5425C65.8537 41.3087 65.2404 41.7684 64.7803 42.2281C62.7868 44.5267 60.18 46.8253 58.0332 49.1239C57.5731 49.5836 57.1131 50.0433 56.8064 50.6563C56.4997 51.116 56.3464 52.0355 55.4263 51.8822C54.8129 50.8095 56.3464 49.5836 56.9597 48.6642C57.7265 47.7447 58.7999 46.8253 59.7199 46.0591C61.7134 44.2202 63.4002 41.9216 65.087 40.236C65.547 40.236 65.7004 40.3892 65.8537 40.5425Z" fill="#9EAF7C"/>
<path fill-rule="evenodd" clip-rule="evenodd" d="M95.2959 41.4619C96.3693 40.236 97.9028 43.3008 98.3628 44.3735C99.4362 46.6721 99.7429 48.8174 99.8962 50.6563C100.05 51.729 100.05 53.5678 99.4362 53.5678C98.6695 53.5678 98.9762 51.8822 98.9762 51.116C98.6695 48.0512 97.7494 44.9864 96.3693 42.8411C95.7559 42.2281 95.4492 42.2281 95.2959 41.4619Z" fill="#9EAF7C"/>
<path fill-rule="evenodd" clip-rule="evenodd" d="M101.276 45.2929C102.043 45.5994 101.89 47.1318 102.043 48.2045C102.196 49.1239 102.656 50.5031 101.89 50.9628C100.663 50.3498 100.816 47.4383 100.816 45.7526C100.816 45.2929 100.97 45.2929 101.276 45.2929Z" fill="#9EAF7C"/>
<path fill-rule="evenodd" clip-rule="evenodd" d="M80.5748 46.0591C82.4149 45.2929 82.5683 48.3577 80.8815 48.2045C79.8081 48.2045 79.5014 46.5188 80.5748 46.0591Z" fill="#9EAF7C"/>
<path fill-rule="evenodd" clip-rule="evenodd" d="M77.0479 50.6563C78.7347 50.5031 82.1083 50.5031 84.4084 50.5031C85.4819 50.5031 87.4753 50.6563 88.2421 50.9628C88.8554 51.2692 90.0822 52.9549 90.2355 53.4146C91.4623 56.1729 91.309 60.4636 91.769 64.2946C91.9223 66.5932 92.3824 68.8918 92.5357 71.1904C92.8424 73.489 92.8424 75.9409 93.1491 78.3927C93.6091 82.3769 94.6825 86.6676 92.6891 89.426C91.9223 90.4986 89.3155 92.1843 87.322 92.4908C84.1018 92.9505 80.4215 92.1843 77.968 91.7246C73.8277 90.6519 73.8277 87.8936 73.3676 82.9899C73.2143 81.4575 72.7543 79.4654 72.6009 77.4733C72.4476 75.6344 72.4476 73.6423 72.2942 71.6501C71.8342 65.6738 70.4541 62.7622 70.9141 57.5521C71.3742 53.2614 72.9076 50.9628 77.0479 50.6563ZM77.3546 70.5775C79.9614 66.8997 82.7217 63.8349 85.4819 60.3104C86.2486 59.391 88.5488 57.2456 88.7021 56.0197C88.8554 54.7938 87.9354 53.8743 87.1686 53.1081C84.4084 52.8016 80.2681 52.4952 77.5079 52.8016C76.4345 52.9549 75.0544 53.2614 74.441 53.8743C72.1409 56.3262 73.8277 62.7622 73.981 66.2867C75.8212 64.1414 77.8146 61.8428 79.5014 59.5442C79.9615 58.9312 80.4215 57.3988 81.6482 57.7053C81.6482 58.778 80.7282 59.5442 80.1148 60.4636C78.888 62.1493 77.6613 63.6817 76.2812 65.3673C75.3611 66.5932 73.8277 67.5127 74.441 69.3515C76.4345 67.3594 78.7347 64.7544 80.4215 62.1493C81.0349 61.2298 81.3416 60.0039 82.5683 59.8507C82.875 61.0766 81.6482 61.996 81.0349 62.9155C79.6548 64.9076 78.2747 66.5932 76.5879 68.4321C75.8211 69.3515 74.5944 70.4242 74.441 71.3437C74.2877 71.9566 74.5944 73.0293 74.5944 73.7955C74.5944 74.7149 74.5944 75.6344 74.5944 76.4006C74.7477 78.5459 75.3611 80.8445 75.3611 82.5302C75.5145 84.369 75.2078 87.1274 76.1278 88.3533C76.8946 89.426 80.2681 90.0389 81.9549 90.1922C87.1686 90.6519 90.8489 89.426 91.309 85.595C91.769 82.3769 90.6956 78.8524 90.3889 75.6344C90.0822 72.7228 90.0822 69.9645 89.6222 67.2062C88.8554 67.5127 88.3954 68.5853 87.782 69.3515C86.4019 70.8839 85.1752 72.4163 83.7951 73.9487C83.1817 74.5617 82.5683 76.0941 81.3416 75.4811C81.3416 74.7149 82.1083 74.2552 82.5683 73.6423C84.1018 72.1099 85.6352 70.271 87.0153 68.7386C87.4753 68.2789 87.6287 67.6659 87.9354 67.2062C88.2421 66.7465 89.3155 66.2868 89.4688 65.6738C89.6222 64.9076 89.0088 63.8349 89.1621 62.9155C86.7086 67.053 82.7217 70.1177 80.2681 74.102C79.9615 74.5617 79.6548 75.6344 78.7347 75.6344C78.1213 74.8682 78.888 74.102 79.1947 73.6423C81.3416 70.271 83.9484 67.9724 86.4019 64.9076C87.0153 64.2946 88.8554 61.8428 88.8554 61.0766C89.0088 60.0039 88.2421 58.9312 88.5488 57.8586C85.4819 61.0766 83.0283 65.0608 80.2681 68.4321C79.3481 69.658 78.2747 70.7307 77.3546 71.9566C77.0479 72.4163 77.0479 73.3358 76.1278 73.3358C75.9745 72.2631 76.8946 71.1904 77.3546 70.5775Z" fill="#9EAF7C"/>
<path fill-rule="evenodd" clip-rule="evenodd" d="M3.90251 52.9549C4.36255 56.9392 5.12927 60.4637 6.66272 63.5285C7.2761 64.6011 8.34951 65.5206 8.50285 66.7465C7.2761 66.8997 6.66272 65.3673 6.04934 64.6011C4.36255 61.6896 3.13579 57.7053 2.8291 53.2614C2.98245 53.2614 2.98245 52.9549 3.28914 52.9549C3.59582 52.8017 3.59582 52.9549 3.90251 52.9549Z" fill="#9EAF7C"/>
<path fill-rule="evenodd" clip-rule="evenodd" d="M2.06235 60.6169C2.67573 60.6169 2.52239 61.3831 2.67573 61.8428C2.67573 61.996 4.9759 65.5206 3.5958 65.6738C3.13577 65.6738 1.60232 62.3025 1.44897 61.8428C1.44897 61.5363 1.44897 61.0766 1.44897 60.9234C1.60232 60.9234 1.75566 60.7701 1.75566 60.6169C1.90901 60.6169 2.06235 60.6169 2.06235 60.6169Z" fill="#9EAF7C"/>
<path fill-rule="evenodd" clip-rule="evenodd" d="M27.5175 70.8839C26.9042 72.4163 23.9906 71.9566 21.3837 71.9566C19.8503 71.9566 18.1635 72.2631 17.3968 71.4969C17.8568 70.4242 19.697 70.8839 21.2304 70.8839C22.6105 70.8839 24.2973 71.0372 25.5241 70.8839C26.1374 70.8839 26.9042 70.271 27.5175 70.8839Z" fill="#9EAF7C"/>
<path fill-rule="evenodd" clip-rule="evenodd" d="M88.8554 72.7228C87.782 75.4811 85.3285 77.4733 83.6417 79.6186C82.2616 81.3043 80.7281 82.6834 79.348 84.5223C78.888 84.982 78.428 85.9015 77.6612 85.9015C77.3545 84.5223 78.888 83.4496 79.8081 82.3769C81.6482 80.3848 83.6417 78.2395 85.3285 76.0941C86.2485 75.0214 87.0153 73.6423 87.9353 72.8761C88.0887 72.5696 88.3954 72.2631 88.8554 72.7228Z" fill="#9EAF7C"/>
<path fill-rule="evenodd" clip-rule="evenodd" d="M89.0087 76.8603C88.3953 78.6992 87.0152 80.0784 85.7885 81.4575C83.9483 83.2964 82.1082 84.982 80.5748 87.1274C80.2681 87.5871 79.9614 88.813 79.0413 88.6598C78.5813 87.4339 79.808 86.3612 80.5748 85.4417C82.1082 83.4496 83.9483 81.764 85.6351 79.9251C86.5552 79.0057 87.1686 77.7798 87.9353 77.0136C88.3953 76.7071 88.5487 76.4006 89.0087 76.8603Z" fill="#9EAF7C"/>
<path fill-rule="evenodd" clip-rule="evenodd" d="M89.3154 80.9978C89.6221 81.764 88.702 82.0705 88.242 82.5302C87.1686 83.6029 85.7885 84.8288 85.0218 85.7482C84.5617 86.2079 84.1017 87.5871 83.1816 86.8209C83.1816 86.2079 83.6417 85.7482 83.9484 85.2885C85.3285 83.6029 87.1686 82.377 88.5487 80.6913C88.8554 80.6913 89.3154 80.6913 89.3154 80.9978Z" fill="#9EAF7C"/>
<path fill-rule="evenodd" clip-rule="evenodd" d="M99.5895 82.6834C100.816 81.3043 101.123 84.982 101.123 86.0547C101.276 87.4339 101.123 89.8857 101.123 91.7246C101.123 92.7972 101.43 96.9347 100.663 96.9347C99.7428 96.9347 100.203 92.9505 100.203 92.031C100.05 88.3533 100.203 85.4417 99.5895 82.6834Z" fill="#9EAF7C"/>
<path fill-rule="evenodd" clip-rule="evenodd" d="M31.5045 95.5556C30.4311 96.3218 29.5111 95.0958 28.4376 94.7894C23.9907 93.257 19.697 91.5713 18.1636 87.7403C18.0102 87.2806 17.7035 86.3612 18.3169 86.2079C18.9303 86.0547 19.0836 87.2806 19.237 87.5871C20.157 89.2727 21.3838 90.4986 23.3773 91.5713C25.3707 92.644 27.3642 93.257 29.5111 94.1764C30.4311 94.4829 31.5045 94.6361 31.5045 95.5556Z" fill="#9EAF7C"/>
<path fill-rule="evenodd" clip-rule="evenodd" d="M58.3398 88.813C58.3398 89.5792 57.4197 89.8857 56.9597 90.1922C56.4997 90.4986 56.193 91.4181 55.4263 91.2648C54.6595 90.4986 57.4197 87.7403 58.3398 88.813Z" fill="#9EAF7C"/>
<path fill-rule="evenodd" clip-rule="evenodd" d="M103.27 88.9662C103.73 90.0389 103.576 92.3375 102.963 93.1037C101.583 92.7972 102.656 90.1922 102.656 88.9662C102.963 88.9662 102.963 88.813 103.27 88.9662Z" fill="#9EAF7C"/>
<path fill-rule="evenodd" clip-rule="evenodd" d="M19.237 91.7246C20.0037 92.0311 20.1571 92.7973 21.0771 93.1037C21.8438 93.4102 23.684 93.1037 23.5306 94.0232C23.3773 94.7894 21.2305 94.3297 20.4637 94.0232C19.3903 93.7167 17.8569 92.4908 19.237 91.7246Z" fill="#9EAF7C"/>
<path fill-rule="evenodd" clip-rule="evenodd" d="M88.242 94.4829C88.8553 94.3296 89.6221 94.4829 89.7754 95.0958C89.9288 96.0153 88.8553 96.9347 87.6286 97.2412C86.4018 97.5477 85.3284 97.088 84.1017 96.9347C82.4149 96.7815 80.4214 97.3944 80.5747 95.5556C80.8814 93.5634 85.4818 95.2491 86.8619 95.0958C87.4752 94.9426 87.4752 94.6361 88.242 94.4829Z" fill="#9EAF7C"/>
<path fill-rule="evenodd" clip-rule="evenodd" d="M67.8472 95.0959C68.4606 95.8621 68.0006 97.088 68.1539 98.0074C68.3073 99.2333 69.534 99.693 69.6874 100.766C67.3872 101.225 66.4671 97.7009 67.2338 95.2491C67.3872 95.0959 67.5405 95.0959 67.8472 95.0959Z" fill="#9EAF7C"/>
</g>
<defs>
<clipPath id="clip0_18_518">
<rect width="102.894" height="102.058" fill="white" transform="translate(0.528931 0.240417)"/>
</clipPath>
</defs>
</svg>
