<svg width="390" height="54" viewBox="0 0 390 54" fill="none" xmlns="http://www.w3.org/2000/svg">
<path d="M30.5723 15.7494C30.5723 6.93531 23.5065 0 14.7997 0C7.76908 0 1.82166 4.76293 -0.215581 11.1985C-2.25453 4.76377 -8.20196 0.165747 -15.2326 0.165747C-23.9411 0.165747 -31 6.90334 -31 15.7208C-31 20.1699 -29.1972 23.3132 -26.2958 26.6769L-0.201032 53.1309L25.8638 26.6769C28.7678 23.3132 30.5723 20.1951 30.5723 15.7494Z" fill="#F3F1EC"/>
<path d="M30.5723 15.7494C30.5723 6.93531 23.5065 0 14.7997 0C7.76909 0 2.03724 4.56445 1.90735e-06 11C-2.03895 4.5653 -8.20195 0.165747 -15.2326 0.165747C-23.9411 0.165747 -31 6.90334 -31 15.7208C-31 20.1699 -29.1972 23.3132 -26.2958 26.6769L0 53L25.8638 26.6769C28.7678 23.3132 30.5723 20.1951 30.5723 15.7494Z" fill="#F3F1EC"/>
<path d="M61.0757 15.7494C61.0757 6.93531 54.067 0 45.4304 0C38.4564 0 32.557 4.76293 30.5362 11.1985C28.5137 4.76377 22.6142 0.165747 15.6402 0.165747C7.00195 0.165747 0 6.90334 0 15.7208C0 20.1699 1.78826 23.3132 4.66627 26.6769L30.5506 53.1309L56.4052 26.6769C59.2858 23.3132 61.0757 20.1951 61.0757 15.7494Z" fill="#F3F1EC"/>
<path d="M89.6549 15.7494C89.6549 6.93531 82.7602 0 74.264 0C67.4035 0 61.5999 4.76293 59.612 11.1985C57.6223 4.76377 51.8188 0.165747 44.9583 0.165747C36.4604 0.165747 29.5723 6.90334 29.5723 15.7208C29.5723 20.1699 31.3315 23.3132 34.1627 26.6769L59.6262 53.1309L85.0604 26.6769C87.8941 23.3132 89.6549 20.1951 89.6549 15.7494Z" fill="#F3F1EC"/>
<path d="M120.441 15.7494C120.441 6.93531 113.375 0 104.669 0C97.6379 0 91.6904 4.76293 89.6532 11.1985C87.6142 4.76377 81.6668 0.165747 74.6362 0.165747C65.9277 0.165747 58.8688 6.90334 58.8688 15.7208C58.8688 20.1699 60.6716 23.3132 63.573 26.6769L89.6677 53.1309L115.733 26.6769C118.637 23.3132 120.441 20.1951 120.441 15.7494Z" fill="#F3F1EC"/>
<path d="M151.227 15.7494C151.227 6.93531 144.161 0 135.455 0C128.424 0 122.477 4.76293 120.439 11.1985C118.4 4.76377 112.453 0.165747 105.422 0.165747C96.7137 0.165747 89.6548 6.90334 89.6548 15.7208C89.6548 20.1699 91.4576 23.3132 94.3591 26.6769L120.454 53.1309L146.519 26.6769C149.423 23.3132 151.227 20.1951 151.227 15.7494Z" fill="#F3F1EC"/>
<path d="M180.524 15.7494C180.524 6.93531 173.629 0 165.133 0C158.272 0 152.469 4.76293 150.481 11.1985C148.491 4.76377 142.687 0.165747 135.827 0.165747C127.329 0.165747 120.441 6.90334 120.441 15.7208C120.441 20.1699 122.2 23.3132 125.031 26.6769L150.495 53.1309L175.929 26.6769C178.763 23.3132 180.524 20.1951 180.524 15.7494Z" fill="#F3F1EC"/>
<path d="M212.303 15.7494C212.303 6.93531 205.294 0 196.658 0C189.684 0 183.784 4.76293 181.763 11.1985C179.741 4.76377 173.841 0.165747 166.867 0.165747C158.229 0.165747 151.227 6.90334 151.227 15.7208C151.227 20.1699 153.015 23.3132 155.893 26.6769L181.778 53.1309L207.632 26.6769C210.513 23.3132 212.303 20.1951 212.303 15.7494Z" fill="#F3F1EC"/>
<path d="M242.096 15.7494C242.096 6.93531 235.03 0 226.323 0C219.293 0 213.345 4.76293 211.308 11.1985C209.269 4.76377 203.322 0.165747 196.291 0.165747C187.583 0.165747 180.524 6.90334 180.524 15.7208C180.524 20.1699 182.326 23.3132 185.228 26.6769L211.323 53.1309L237.387 26.6769C240.291 23.3132 242.096 20.1951 242.096 15.7494Z" fill="#F3F1EC"/>
<path d="M272 15.7106C272 6.91822 265.115 0 256.63 0C249.779 0 243.984 4.75119 241.998 11.1709C240.011 4.75203 234.216 0.165339 227.365 0.165339C218.879 0.165339 212 6.88633 212 15.682C212 20.1202 213.757 23.2557 216.584 26.6112L242.013 53L267.412 26.6112C270.242 23.2557 272 20.1454 272 15.7106Z" fill="#F3F1EC"/>
<path d="M301 15.7106C301 6.91822 294.115 0 285.63 0C278.779 0 272.984 4.75119 270.998 11.1709C269.011 4.75203 263.216 0.165339 256.365 0.165339C247.879 0.165339 241 6.88633 241 15.682C241 20.1202 242.757 23.2557 245.584 26.6112L271.013 53L296.412 26.6112C299.242 23.2557 301 20.1454 301 15.7106Z" fill="#F3F1EC"/>
<path d="M331 15.7106C331 6.91822 324.229 0 315.886 0C309.149 0 303.45 4.75119 301.498 11.1709C299.545 4.75203 293.846 0.165339 287.109 0.165339C278.764 0.165339 272 6.88633 272 15.682C272 20.1202 273.727 23.2557 276.508 26.6112L301.512 53L326.488 26.6112C329.271 23.2557 331 20.1454 331 15.7106Z" fill="#F3F1EC"/>
<path d="M360 15.7106C360 6.91822 353.229 0 344.886 0C338.149 0 332.45 4.75119 330.498 11.1709C328.545 4.75203 322.846 0.165339 316.109 0.165339C307.764 0.165339 301 6.88633 301 15.682C301 20.1202 302.727 23.2557 305.508 26.6112L330.512 53L355.488 26.6112C358.271 23.2557 360 20.1454 360 15.7106Z" fill="#F3F1EC"/>
<path d="M390 15.7106C390 6.91822 383.229 0 374.886 0C368.149 0 362.45 4.75119 360.498 11.1709C358.545 4.75203 352.846 0.165339 346.109 0.165339C337.764 0.165339 331 6.88633 331 15.682C331 20.1202 332.727 23.2557 335.508 26.6112L360.512 53L385.488 26.6112C388.271 23.2557 390 20.1454 390 15.7106Z" fill="#F3F1EC"/>
<path d="M419 15.7106C419 6.91822 412.229 0 403.886 0C397.149 0 391.952 5.08031 390 11.5C388.046 5.08115 381.846 0.165339 375.109 0.165339C366.764 0.165339 360 6.88633 360 15.682C360 20.1202 361.727 23.2557 364.508 26.6112L390 53L414.488 26.6112C417.271 23.2557 419 20.1454 419 15.7106Z" fill="#F3F1EC"/>
</svg>
