<svg width="1440" height="77" viewBox="0 0 1440 77" fill="none" xmlns="http://www.w3.org/2000/svg">
<path d="M44.2336 22.8248C44.2336 10.051 33.9936 0 21.3753 0C11.1861 0 2.56681 6.90268 -0.385654 16.2294C-3.3406 6.90389 -11.9599 0.24021 -22.1491 0.24021C-34.7699 0.24021 -45 10.0047 -45 22.7833C-45 29.2312 -42.3873 33.7866 -38.1824 38.6616L-0.364571 77L37.4099 38.6616C41.6185 33.7866 44.2336 29.2678 44.2336 22.8248Z" fill="#F3F1EC"/>
<path d="M44.2336 22.8248C44.2336 10.051 33.9936 0 21.3753 0C11.1861 0 2.87924 6.61504 -0.0732256 15.9418C-3.02817 6.61626 -11.9599 0.240209 -22.1491 0.240209C-34.7699 0.240209 -45 10.0047 -45 22.7833C-45 29.2312 -42.3873 33.7866 -38.1824 38.6616L-0.0732284 76.8103L37.4099 38.6616C41.6185 33.7866 44.2336 29.2678 44.2336 22.8248Z" fill="#F3F1EC"/>
<path d="M88.4408 22.8248C88.4408 10.051 78.2834 0 65.7668 0C55.6598 0 47.11 6.90267 44.1813 16.2294C41.2502 6.90389 32.7004 0.240209 22.5934 0.240209C10.0743 0.240209 -0.0732422 10.0047 -0.0732422 22.7833C-0.0732422 29.2312 2.51839 33.7866 6.68936 38.6616L44.2022 77L81.672 38.6616C85.8467 33.7866 88.4408 29.2678 88.4408 22.8248Z" fill="#F3F1EC"/>
<path d="M129.859 22.8248C129.859 10.051 119.867 0 107.554 0C97.6113 0 89.2005 6.90267 86.3195 16.2294C83.4361 6.90389 75.0253 0.24021 65.0826 0.24021C52.7671 0.24021 42.7845 10.0047 42.7845 22.7833C42.7845 29.2312 45.334 33.7866 49.4372 38.6616L86.3401 77L123.201 38.6616C127.307 33.7866 129.859 29.2678 129.859 22.8248Z" fill="#F3F1EC"/>
<path d="M174.476 22.8248C174.476 10.051 164.236 0 151.618 0C141.429 0 132.809 6.90267 129.857 16.2294C126.902 6.90389 118.283 0.24021 108.093 0.24021C95.4725 0.24021 85.2424 10.0047 85.2424 22.7833C85.2424 29.2312 87.8551 33.7866 92.06 38.6616L129.878 77L167.652 38.6616C171.861 33.7866 174.476 29.2678 174.476 22.8248Z" fill="#F3F1EC"/>
<path d="M219.093 22.8248C219.093 10.051 208.853 0 196.235 0C186.045 0 177.426 6.90267 174.474 16.2294C171.519 6.90389 162.899 0.24021 152.71 0.24021C140.089 0.24021 129.859 10.0047 129.859 22.7833C129.859 29.2312 132.472 33.7866 136.677 38.6616L174.495 77L212.269 38.6616C216.478 33.7866 219.093 29.2678 219.093 22.8248Z" fill="#F3F1EC"/>
<path d="M261.551 22.8248C261.551 10.051 251.558 0 239.245 0C229.303 0 220.892 6.90267 218.011 16.2294C215.127 6.90389 206.717 0.24021 196.774 0.24021C184.458 0.24021 174.476 10.0047 174.476 22.7833C174.476 29.2312 177.025 33.7866 181.128 38.6616L218.031 77L254.892 38.6616C258.999 33.7866 261.551 29.2678 261.551 22.8248Z" fill="#F3F1EC"/>
<path d="M307.607 22.8248C307.607 10.051 297.449 0 284.933 0C274.826 0 266.276 6.90267 263.347 16.2294C260.416 6.90389 251.867 0.24021 241.76 0.24021C229.24 0.24021 219.093 10.0047 219.093 22.7833C219.093 29.2312 221.685 33.7866 225.855 38.6616L263.368 77L300.838 38.6616C305.013 33.7866 307.607 29.2678 307.607 22.8248Z" fill="#F3F1EC"/>
<path d="M350.784 22.8248C350.784 10.051 340.544 0 327.926 0C317.737 0 309.117 6.90267 306.165 16.2294C303.21 6.90389 294.591 0.24021 284.402 0.24021C271.781 0.24021 261.551 10.0047 261.551 22.7833C261.551 29.2312 264.163 33.7866 268.368 38.6616L306.186 77L343.961 38.6616C348.169 33.7866 350.784 29.2678 350.784 22.8248Z" fill="#F3F1EC"/>
<path d="M392.955 22.7686C392.955 10.0262 382.977 0 370.68 0C360.751 0 352.352 6.88567 349.475 16.1894C346.596 6.88688 338.196 0.239618 328.267 0.239618C315.969 0.239618 306 9.98002 306 22.7272C306 29.1592 308.546 33.7034 312.643 38.5663L349.496 76.8103L386.306 38.5663C390.407 33.7034 392.955 29.1957 392.955 22.7686Z" fill="#F3F1EC"/>
<path d="M434.983 22.7686C434.983 10.0262 425.005 0 412.709 0C402.78 0 394.38 6.88567 391.503 16.1894C388.624 6.88688 380.225 0.239618 370.296 0.239618C357.997 0.239618 348.028 9.98002 348.028 22.7272C348.028 29.1592 350.574 33.7034 354.672 38.5663L391.524 76.8103L428.334 38.5663C432.435 33.7034 434.983 29.1957 434.983 22.7686Z" fill="#F3F1EC"/>
<path d="M478.461 22.7686C478.461 10.0262 468.649 0 456.557 0C446.794 0 438.535 6.88567 435.705 16.1894C432.874 6.88688 424.615 0.239618 414.851 0.239618C402.758 0.239618 392.955 9.98002 392.955 22.7272C392.955 29.1592 395.459 33.7034 399.488 38.5663L435.726 76.8103L471.922 38.5663C475.955 33.7034 478.461 29.1957 478.461 22.7686Z" fill="#F3F1EC"/>
<path d="M520.489 22.7686C520.489 10.0262 510.677 0 498.586 0C488.822 0 480.563 6.88567 477.734 16.1894C474.902 6.88688 466.643 0.239618 456.88 0.239618C444.786 0.239618 434.983 9.98002 434.983 22.7272C434.983 29.1592 437.487 33.7034 441.516 38.5663L477.754 76.8103L513.95 38.5663C517.983 33.7034 520.489 29.1957 520.489 22.7686Z" fill="#F3F1EC"/>
<path d="M563.966 22.7686C563.966 10.0262 554.154 0 542.063 0C532.3 0 524.04 6.88567 521.211 16.1894C518.38 6.88688 510.12 0.239618 500.357 0.239618C488.263 0.239618 478.461 9.98002 478.461 22.7272C478.461 29.1592 480.964 33.7034 484.993 38.5663L521.231 76.8103L557.428 38.5663C561.461 33.7034 563.966 29.1957 563.966 22.7686Z" fill="#F3F1EC"/>
<path d="M605.995 22.7686C605.995 10.0262 596.183 0 584.091 0C574.328 0 566.796 7.36264 563.967 16.6664C561.135 7.36386 552.149 0.239618 542.385 0.239618C530.292 0.239618 520.489 9.98002 520.489 22.7272C520.489 29.1592 522.993 33.7034 527.022 38.5663L563.967 76.8103L599.456 38.5663C603.489 33.7034 605.995 29.1957 605.995 22.7686Z" fill="#F3F1EC"/>
<path d="M650.922 22.7686C650.922 10.0262 640.943 0 628.647 0C618.718 0 610.319 6.88567 607.442 16.1894C604.562 6.88688 596.163 0.239618 586.234 0.239618C573.935 0.239618 563.967 9.98002 563.967 22.7272C563.967 29.1592 566.513 33.7034 570.61 38.5663L607.462 76.8103L644.272 38.5663C648.373 33.7034 650.922 29.1957 650.922 22.7686Z" fill="#F3F1EC"/>
<path d="M692.95 22.7686C692.95 10.0262 682.971 0 670.675 0C660.746 0 652.347 6.88567 649.47 16.1894C646.59 6.88688 638.191 0.239618 628.262 0.239618C615.964 0.239618 605.995 9.98002 605.995 22.7272C605.995 29.1592 608.541 33.7034 612.638 38.5663L649.491 76.8103L686.3 38.5663C690.402 33.7034 692.95 29.1957 692.95 22.7686Z" fill="#F3F1EC"/>
<path d="M834.235 22.8248C834.235 10.051 823.995 0 811.377 0C801.187 0 792.568 6.90268 789.616 16.2294C786.661 6.90389 778.041 0.24021 767.852 0.24021C755.231 0.24021 745.001 10.0047 745.001 22.7833C745.001 29.2312 747.614 33.7866 751.819 38.6616L789.637 77L827.411 38.6616C831.62 33.7866 834.235 29.2678 834.235 22.8248Z" fill="#F3F1EC"/>
<path d="M790.709 23.065C790.709 10.2912 780.469 0.240209 767.851 0.240209C757.662 0.240209 749.355 6.85525 746.402 16.182C743.447 6.85647 734.516 0.480419 724.327 0.480419C711.706 0.480419 701.476 10.2449 701.476 23.0235C701.476 29.4714 704.088 34.0269 708.293 38.9018L746.402 77.0505L783.885 38.9018C788.094 34.0269 790.709 29.508 790.709 23.065Z" fill="#F3F1EC"/>
<path d="M748 22.8812C748 10.0758 736.141 0 722 0C710.581 0 704 7.5 698.347 15.9811C693 7 683.919 0 672.5 0C658.356 0 648 10.0294 648 22.8396C648 29.3034 650.928 33.8701 655.64 38.7571L698.347 77L740.353 38.7571C745.069 33.8701 748 29.3401 748 22.8812Z" fill="#F3F1EC"/>
<path d="M878.442 22.8248C878.442 10.051 868.285 0 855.768 0C845.661 0 837.111 6.90267 834.183 16.2294C831.251 6.90389 822.702 0.240209 812.595 0.240209C800.076 0.240209 789.928 10.0047 789.928 22.7833C789.928 29.2312 792.52 33.7866 796.691 38.6616L834.203 77L871.673 38.6616C875.848 33.7866 878.442 29.2678 878.442 22.8248Z" fill="#F3F1EC"/>
<path d="M919.861 22.8248C919.861 10.051 909.868 0 897.555 0C887.613 0 879.202 6.90267 876.321 16.2294C873.437 6.90389 865.027 0.24021 855.084 0.24021C842.768 0.24021 832.786 10.0047 832.786 22.7833C832.786 29.2312 835.335 33.7866 839.439 38.6616L876.341 77L913.202 38.6616C917.309 33.7866 919.861 29.2678 919.861 22.8248Z" fill="#F3F1EC"/>
<path d="M964.477 22.8248C964.477 10.051 954.237 0 941.619 0C931.43 0 922.81 6.90267 919.858 16.2294C916.903 6.90389 908.284 0.24021 898.095 0.24021C885.474 0.24021 875.244 10.0047 875.244 22.7833C875.244 29.2312 877.856 33.7866 882.061 38.6616L919.879 77L957.654 38.6616C961.862 33.7866 964.477 29.2678 964.477 22.8248Z" fill="#F3F1EC"/>
<path d="M1009.09 22.8248C1009.09 10.051 998.854 0 986.236 0C976.047 0 967.427 6.90267 964.475 16.2294C961.52 6.90389 952.901 0.24021 942.712 0.24021C930.091 0.24021 919.861 10.0047 919.861 22.7833C919.861 29.2312 922.473 33.7866 926.678 38.6616L964.496 77L1002.27 38.6616C1006.48 33.7866 1009.09 29.2678 1009.09 22.8248Z" fill="#F3F1EC"/>
<path d="M1051.55 22.8248C1051.55 10.051 1041.56 0 1029.25 0C1019.3 0 1010.89 6.90267 1008.01 16.2294C1005.13 6.90389 996.718 0.24021 986.775 0.24021C974.46 0.24021 964.477 10.0047 964.477 22.7833C964.477 29.2312 967.027 33.7866 971.13 38.6616L1008.03 77L1044.89 38.6616C1049 33.7866 1051.55 29.2678 1051.55 22.8248Z" fill="#F3F1EC"/>
<path d="M1097.61 22.8248C1097.61 10.051 1087.45 0 1074.93 0C1064.83 0 1056.28 6.90267 1053.35 16.2294C1050.42 6.90389 1041.87 0.24021 1031.76 0.24021C1019.24 0.24021 1009.09 10.0047 1009.09 22.7833C1009.09 29.2312 1011.69 33.7866 1015.86 38.6616L1053.37 77L1090.84 38.6616C1095.01 33.7866 1097.61 29.2678 1097.61 22.8248Z" fill="#F3F1EC"/>
<path d="M1140.79 22.8248C1140.79 10.051 1130.55 0 1117.93 0C1107.74 0 1099.12 6.90267 1096.17 16.2294C1093.21 6.90389 1084.59 0.24021 1074.4 0.24021C1061.78 0.24021 1051.55 10.0047 1051.55 22.7833C1051.55 29.2312 1054.16 33.7866 1058.37 38.6616L1096.19 77L1133.96 38.6616C1138.17 33.7866 1140.79 29.2678 1140.79 22.8248Z" fill="#F3F1EC"/>
<path d="M1182.96 22.7686C1182.96 10.0262 1172.98 0 1160.68 0C1150.75 0 1142.35 6.88567 1139.48 16.1894C1136.6 6.88688 1128.2 0.239618 1118.27 0.239618C1105.97 0.239618 1096 9.98002 1096 22.7272C1096 29.1592 1098.55 33.7034 1102.64 38.5663L1139.5 76.8103L1176.31 38.5663C1180.41 33.7034 1182.96 29.1957 1182.96 22.7686Z" fill="#F3F1EC"/>
<path d="M1224.98 22.7686C1224.98 10.0262 1215.01 0 1202.71 0C1192.78 0 1184.38 6.88567 1181.5 16.1894C1178.62 6.88688 1170.23 0.239618 1160.3 0.239618C1148 0.239618 1138.03 9.98002 1138.03 22.7272C1138.03 29.1592 1140.58 33.7034 1144.67 38.5663L1181.52 76.8103L1218.33 38.5663C1222.44 33.7034 1224.98 29.1957 1224.98 22.7686Z" fill="#F3F1EC"/>
<path d="M1268.46 22.7686C1268.46 10.0262 1258.65 0 1246.56 0C1236.79 0 1228.54 6.88567 1225.71 16.1894C1222.88 6.88688 1214.62 0.239618 1204.85 0.239618C1192.76 0.239618 1182.96 9.98002 1182.96 22.7272C1182.96 29.1592 1185.46 33.7034 1189.49 38.5663L1225.73 76.8103L1261.92 38.5663C1265.96 33.7034 1268.46 29.1957 1268.46 22.7686Z" fill="#F3F1EC"/>
<path d="M1310.49 22.7686C1310.49 10.0262 1300.68 0 1288.59 0C1278.82 0 1270.56 6.88567 1267.73 16.1894C1264.9 6.88688 1256.64 0.239618 1246.88 0.239618C1234.79 0.239618 1224.98 9.98002 1224.98 22.7272C1224.98 29.1592 1227.49 33.7034 1231.52 38.5663L1267.76 76.8103L1303.95 38.5663C1307.98 33.7034 1310.49 29.1957 1310.49 22.7686Z" fill="#F3F1EC"/>
<path d="M1353.97 22.7686C1353.97 10.0262 1344.16 0 1332.06 0C1322.3 0 1314.04 6.88567 1311.21 16.1894C1308.38 6.88688 1300.12 0.239618 1290.36 0.239618C1278.26 0.239618 1268.46 9.98002 1268.46 22.7272C1268.46 29.1592 1270.97 33.7034 1274.99 38.5663L1311.23 76.8103L1347.43 38.5663C1351.46 33.7034 1353.97 29.1957 1353.97 22.7686Z" fill="#F3F1EC"/>
<path d="M1396 22.7686C1396 10.0262 1386.18 0 1374.09 0C1364.33 0 1356.8 7.36264 1353.97 16.6664C1351.14 7.36386 1342.15 0.239618 1332.39 0.239618C1320.29 0.239618 1310.49 9.98002 1310.49 22.7272C1310.49 29.1592 1312.99 33.7034 1317.02 38.5663L1353.97 76.8103L1389.46 38.5663C1393.49 33.7034 1396 29.1957 1396 22.7686Z" fill="#F3F1EC"/>
<path d="M1440.92 22.7686C1440.92 10.0262 1430.94 0 1418.65 0C1408.72 0 1400.32 6.88567 1397.44 16.1894C1394.56 6.88688 1386.16 0.239618 1376.23 0.239618C1363.94 0.239618 1353.97 9.98002 1353.97 22.7272C1353.97 29.1592 1356.51 33.7034 1360.61 38.5663L1397.46 76.8103L1434.27 38.5663C1438.37 33.7034 1440.92 29.1957 1440.92 22.7686Z" fill="#F3F1EC"/>
<path d="M1482.95 22.7686C1482.95 10.0262 1472.97 0 1460.68 0C1450.75 0 1442.35 6.88567 1439.47 16.1894C1436.59 6.88688 1428.19 0.239618 1418.26 0.239618C1405.96 0.239618 1396 9.98002 1396 22.7272C1396 29.1592 1398.54 33.7034 1402.64 38.5663L1439.49 76.8103L1476.3 38.5663C1480.4 33.7034 1482.95 29.1957 1482.95 22.7686Z" fill="#F3F1EC"/>
</svg>
