<svg width="40" height="40" viewBox="0 0 40 40" fill="none" xmlns="http://www.w3.org/2000/svg">
<circle cx="20" cy="20" r="19" stroke="white" stroke-width="2"/>
<g clip-path="url(#clip0_5_245)">
<path d="M20.1758 28.9998C20.116 28.9998 20.0562 28.9998 19.9965 28.9998C18.5867 29.0033 17.2824 28.9681 16.0133 28.8908C14.8496 28.8205 13.7914 28.4197 12.9441 27.7307C12.1285 27.0662 11.573 26.1662 11.2883 25.0588C11.0422 24.0956 11.0281 23.1464 11.0176 22.2324C11.0105 21.5714 11.0035 20.7945 11 20C11.0035 19.2055 11.0105 18.425 11.0211 17.7676C11.0352 16.8536 11.0457 15.9044 11.2918 14.9411C11.573 13.8338 12.132 12.9338 12.9477 12.2693C13.7914 11.5803 14.8531 11.1795 16.0168 11.1092C17.2824 11.0319 18.5867 10.9967 20 11.0002C21.4098 10.9967 22.7141 11.0319 23.9832 11.1092C25.1469 11.1795 26.2051 11.5803 27.0523 12.2693C27.868 12.9338 28.4234 13.8338 28.7082 14.9411C28.9543 15.9044 28.9684 16.8536 28.9789 17.7676C28.9895 18.425 28.9965 19.202 29 19.9965V20C28.9965 20.791 28.9895 21.5714 28.9789 22.2288C28.9648 23.1429 28.9543 24.0921 28.7082 25.0553C28.427 26.1627 27.868 27.0627 27.0523 27.7271C26.2086 28.4162 25.1469 28.8169 23.9832 28.8873C22.7703 28.9646 21.5223 28.9998 20.1758 28.9998ZM19.9965 27.5935C21.3852 27.5971 22.6578 27.5619 23.8953 27.4881C24.7742 27.4353 25.5371 27.1506 26.1594 26.6408C26.7359 26.1698 27.1332 25.5194 27.3406 24.7108C27.5445 23.9093 27.5586 23.0444 27.5691 22.2113C27.5797 21.5574 27.5867 20.784 27.5902 20C27.5867 19.216 27.5797 18.4426 27.5691 17.7887C27.5586 16.9555 27.5445 16.0942 27.3406 15.2892C27.1332 14.4806 26.7359 13.8302 26.1594 13.3592C25.5336 12.8494 24.7742 12.5647 23.8953 12.5119C22.6578 12.4381 21.3816 12.4029 19.9965 12.4065C18.6078 12.4029 17.3352 12.4381 16.0977 12.5119C15.2188 12.5647 14.4559 12.8494 13.8336 13.3592C13.257 13.8302 12.8598 14.4806 12.6559 15.2927C12.452 16.0942 12.4379 16.9591 12.4273 17.7922C12.4168 18.4461 12.4098 19.2196 12.4062 20.0035C12.4098 20.784 12.4168 21.5574 12.4273 22.2113C12.4379 23.0444 12.452 23.9058 12.6559 24.7108C12.8633 25.5194 13.2605 26.1698 13.8371 26.6408C14.4629 27.1506 15.2223 27.4353 16.1012 27.4881C17.3387 27.5619 18.6148 27.5971 19.9965 27.5935ZM19.9648 24.3944C17.5426 24.3944 15.5703 22.4222 15.5703 20C15.5703 17.5778 17.5426 15.6056 19.9648 15.6056C22.3871 15.6056 24.3594 17.5778 24.3594 20C24.3594 22.4222 22.3871 24.3944 19.9648 24.3944ZM19.9648 17.0118C18.316 17.0118 16.9766 18.3512 16.9766 20C16.9766 21.6488 18.316 22.9882 19.9648 22.9882C21.6137 22.9882 22.9531 21.6488 22.9531 20C22.9531 18.3512 21.6137 17.0118 19.9648 17.0118ZM24.8516 14.1994C24.268 14.1994 23.7969 14.6705 23.7969 15.254C23.7969 15.8376 24.268 16.3087 24.8516 16.3087C25.4352 16.3087 25.9062 15.8376 25.9062 15.254C25.9062 14.6705 25.4352 14.1994 24.8516 14.1994Z" fill="white"/>
</g>
<defs>
<clipPath id="clip0_5_245">
<rect width="18" height="18" fill="white" transform="translate(11 11)"/>
</clipPath>
</defs>
</svg>
