<svg width="85" height="111" viewBox="0 0 85 111" fill="none" xmlns="http://www.w3.org/2000/svg">
<g clip-path="url(#clip0_18_597)">
<path fill-rule="evenodd" clip-rule="evenodd" d="M51.1048 87.6748C48.939 89.4254 47.9915 93.0612 43.7952 92.6573C41.4941 92.3879 39.4636 90.0987 37.9746 88.3481C36.3503 86.4628 35.132 84.3082 33.7784 82.5576C30.8004 78.787 28.3639 74.4779 25.6567 70.7073C23.4909 67.7447 21.8665 64.5128 19.8361 61.4156C17.941 58.453 16.4521 54.6825 15.2338 51.1813C14.2863 48.7574 13.4741 46.1988 12.6619 43.7748C11.8497 41.3509 10.9022 38.2537 10.7668 35.5605C10.6315 32.3286 10.7668 28.962 11.3083 26.1341C12.9326 18.189 16.9935 11.3212 22.1373 6.87738C24.0323 5.26144 26.0628 4.45346 28.6347 3.37616C33.3723 1.49089 38.7868 0.413595 45.1488 -0.125054C46.2317 -0.259717 47.7207 0.413595 48.939 0.548257C50.8341 0.817582 52.323 0.682919 53.6767 0.952244C54.8949 1.35623 56.1132 2.02954 57.3314 2.56819C60.5801 4.04948 63.9642 6.20407 66.9422 8.22401C67.8897 8.89732 68.7019 9.83995 69.514 10.6479C71.4091 12.2639 73.1688 14.1491 74.3871 16.0344C76.1468 18.997 76.8236 23.5755 77.2297 27.75C77.5004 29.9046 77.5004 32.3286 77.5004 34.6178C77.5004 37.0417 77.7711 39.331 77.6358 41.7549C77.2297 47.4107 75.6053 51.8546 73.7103 56.0291C72.7627 58.049 71.4091 59.7997 70.3262 61.6849C68.0251 65.4555 65.8593 69.226 63.0167 72.5926C61.663 74.3432 60.174 75.9591 59.0911 77.7097C56.79 81.3456 53.9474 84.5775 51.1048 87.6748ZM72.0859 16.5731C71.1384 15.2264 69.7848 13.7452 68.4311 12.5332C66.13 10.3786 62.8813 7.82002 60.0387 6.33874C57.8729 5.26144 55.1656 3.78015 52.9999 3.2415C51.5109 2.97218 50.1572 3.10684 48.6683 2.97218C47.5854 2.83752 46.9086 2.43353 45.8257 2.29887C45.0135 2.1642 44.0659 2.29887 43.5245 2.43353C38.9222 2.83752 34.4552 3.91481 30.3944 5.3961C26.3335 6.87738 22.9494 8.89732 20.6483 11.7252C18.2118 14.6878 16.5874 18.3237 15.0984 21.8249C13.4741 25.8648 12.9326 30.5779 13.2034 35.6951C13.4741 40.2736 15.3692 44.3135 16.8581 48.3534C18.3471 52.3932 19.7007 56.7024 21.7312 59.9343C22.408 61.0116 23.2202 61.9543 23.7616 63.1662C24.4384 64.3782 25.1152 65.4555 25.792 66.5328C27.1457 68.6874 28.77 70.7073 30.1236 72.8619C31.4773 75.0165 32.8309 77.3058 34.3199 79.3257C35.132 80.403 35.9442 81.3456 36.621 82.4229C37.9746 84.4429 39.3283 86.5975 40.9526 88.2134C41.7648 89.0214 43.3891 90.368 44.472 90.368C46.2317 90.368 47.5854 88.4827 48.5329 87.2708C49.7512 85.7895 50.9694 84.4429 52.1877 82.9616C52.8645 82.2883 53.5413 81.6149 54.2181 80.9416C55.8425 79.0564 56.9254 76.6324 58.5497 74.4778C59.6326 72.9966 60.9862 71.7846 62.0691 70.3033C64.2349 67.3408 66.2653 64.1088 68.1604 61.0116C69.6494 58.453 71.4091 56.4331 72.492 53.7399C72.0859 53.7399 71.8152 53.6052 71.6798 53.3359C71.5445 51.8546 69.2433 50.508 70.3262 49.1613C71.6798 49.8347 72.0859 51.5853 72.8981 52.9319C72.8981 52.6626 73.5749 51.9892 73.1688 51.9892C72.6274 51.9892 72.6274 51.4506 72.3567 51.1813C71.8152 50.508 71.4091 48.892 72.492 49.0267C73.3042 49.0267 73.0335 50.7773 73.981 51.0466C74.6578 48.7574 75.3346 46.4681 75.6053 43.7748C75.3346 43.6402 74.9285 43.5055 74.7932 42.9669C75.0639 40.8123 74.9285 37.5804 74.6578 34.6178C74.5224 32.8672 73.8456 31.5206 73.5749 29.6353C73.4395 28.8273 73.4395 28.154 73.1688 27.0767C73.0335 26.2688 72.492 24.7875 73.5749 25.0568C73.981 25.0568 74.2517 26.2688 74.3871 26.8074C74.9285 29.0967 75.0639 31.2513 75.7407 33.0019C74.6578 27.0767 74.7932 20.4783 72.0859 16.5731Z" fill="#9EAF7C"/>
<path fill-rule="evenodd" clip-rule="evenodd" d="M16.0459 10.7826C15.9106 10.7826 15.6398 10.7826 15.5045 10.7826C14.8277 9.97463 15.5045 8.76267 15.9106 8.08936C14.0155 8.08936 15.0984 4.99212 16.452 4.85746C16.5874 4.99212 16.7227 5.12679 16.8581 5.26145C16.8581 6.20408 16.0459 6.33875 16.0459 7.28138C17.5349 5.66543 19.2946 3.24151 21.5958 2.16422C23.3555 2.83753 21.1897 3.78016 20.2421 4.58814C18.7532 5.8001 17.1288 7.55071 16.452 9.43598C16.452 9.97463 16.8581 10.1093 16.0459 10.7826Z" fill="#9EAF7C"/>
<path fill-rule="evenodd" clip-rule="evenodd" d="M74.387 11.1866C73.1688 11.0519 72.6273 9.83997 71.8152 9.16666C70.4615 7.9547 69.1079 7.01206 67.3482 6.06942C67.2128 5.53078 67.4836 5.12679 67.8896 5.26145C69.2433 5.53078 71.003 6.74274 72.492 7.9547C73.5749 8.76267 74.9285 10.1093 74.387 11.1866Z" fill="#9EAF7C"/>
<path fill-rule="evenodd" clip-rule="evenodd" d="M42.9831 9.97461C42.8477 9.97461 42.7123 9.97461 42.7123 10.1093C41.7648 9.16664 41.2233 7.82001 40.8173 6.33873C42.0355 4.99211 43.5245 9.03197 42.9831 9.97461Z" fill="#9EAF7C"/>
<path fill-rule="evenodd" clip-rule="evenodd" d="M45.2842 9.43596C45.1488 9.43596 45.0135 9.43596 45.0135 9.57062C43.9306 9.03198 43.7952 7.68535 43.1184 6.60805C44.472 5.26143 45.6903 8.35866 45.2842 9.43596Z" fill="#9EAF7C"/>
<path fill-rule="evenodd" clip-rule="evenodd" d="M40.4112 9.57064C40.2758 9.57064 40.2758 9.57064 40.1404 9.7053C39.1929 9.7053 39.1929 9.03199 38.7868 8.22402C38.5161 7.82003 37.2978 6.06942 38.7868 6.20408C39.4636 6.33875 40.8172 8.76267 40.4112 9.57064Z" fill="#9EAF7C"/>
<path fill-rule="evenodd" clip-rule="evenodd" d="M47.5853 10.2439C46.5024 9.57063 46.2317 8.08934 45.8256 6.87738C47.1792 5.80009 48.6682 9.16664 47.5853 10.2439Z" fill="#9EAF7C"/>
<path fill-rule="evenodd" clip-rule="evenodd" d="M32.8309 7.01205C33.9138 6.20407 34.5906 8.35867 35.4027 9.30131C35.6735 9.57063 37.0271 10.7826 35.6735 11.0519C34.8613 11.1866 34.3199 9.97462 33.9138 9.30131C33.3723 8.35867 32.6955 7.95468 32.8309 7.01205Z" fill="#9EAF7C"/>
<path fill-rule="evenodd" clip-rule="evenodd" d="M38.6514 10.2439C38.5161 10.3786 38.3807 10.2439 38.3807 10.5133C37.5685 10.6479 35.2674 7.01203 36.621 6.87737C37.4332 6.74271 38.6514 9.43596 38.6514 10.2439Z" fill="#9EAF7C"/>
<path fill-rule="evenodd" clip-rule="evenodd" d="M48.939 7.55069C49.3451 8.224 49.8865 9.16664 49.7511 10.1093C49.4804 10.1093 49.2097 10.2439 48.939 10.2439C48.6682 9.43596 47.0439 7.55069 48.939 7.55069Z" fill="#9EAF7C"/>
<path fill-rule="evenodd" clip-rule="evenodd" d="M33.5077 11.7252C31.8833 12.6679 31.748 9.70528 30.3943 9.30129C31.3419 7.01204 33.237 10.5133 33.5077 11.7252Z" fill="#9EAF7C"/>
<path fill-rule="evenodd" clip-rule="evenodd" d="M70.4615 19.2663C69.514 19.401 69.3787 18.4584 68.9726 17.9197C68.4311 17.1117 67.6189 16.0344 66.8068 15.2265C65.7239 14.0145 64.7763 13.0719 63.5581 12.2639C63.2874 10.7826 59.2265 10.3786 60.174 8.62801C60.3094 8.62801 60.3094 8.49335 60.4447 8.49335C62.3398 9.30132 63.5581 10.6479 65.1824 11.7252C66.13 12.8025 67.2129 14.0145 68.4311 15.2265C69.3786 16.3038 70.8676 17.5157 70.4615 19.2663Z" fill="#9EAF7C"/>
<path fill-rule="evenodd" clip-rule="evenodd" d="M52.1877 10.9173C51.1048 11.8599 50.5633 10.1093 50.428 9.03199C51.3755 8.08935 52.1877 9.83996 52.1877 10.9173Z" fill="#9EAF7C"/>
<path fill-rule="evenodd" clip-rule="evenodd" d="M31.2065 13.6105C29.4468 14.0145 28.77 11.7252 27.9578 10.3786C28.9054 9.43596 29.7175 10.7826 30.259 11.5906C30.8004 12.2639 31.3419 12.9372 31.2065 13.6105Z" fill="#9EAF7C"/>
<path fill-rule="evenodd" clip-rule="evenodd" d="M20.1068 35.1565C18.8885 34.8871 17.6703 33.4059 17.6703 31.9246C19.0239 31.5206 19.1593 33.2712 19.9714 33.8098C19.9714 31.1166 20.919 29.366 21.7312 27.2114C22.8141 24.3835 23.4909 22.0942 25.1152 19.9396C29.3114 14.4185 36.2149 10.7826 44.8781 10.3786C45.6903 10.3786 47.8561 10.2439 49.2097 10.6479C51.2401 11.1866 53.1352 12.3985 55.0303 13.6105C56.79 14.6878 59.0911 15.4958 60.5801 16.8424C61.9337 17.9197 63.152 19.6703 64.2349 21.2862C65.3178 23.0369 66.6714 24.7875 67.3482 26.2687C67.8897 27.346 68.025 28.962 68.4311 30.3086C69.2433 32.7325 69.9201 33.9445 69.6494 37.1764C69.3787 40.8123 67.6189 44.7175 65.9946 47.6801C64.0995 51.1813 61.663 55.3558 58.4143 57.3757C56.2485 58.857 50.6987 60.069 47.0439 59.7997C45.961 59.665 45.0135 59.261 44.0659 59.1264C42.7123 58.9917 41.2233 59.261 39.7343 59.261C37.0271 59.261 34.3198 58.453 32.2894 57.1064C30.8004 56.0291 29.3114 54.2785 27.9578 52.9319C26.4688 51.5853 25.1152 49.9693 24.0323 48.3534C21.5958 44.8521 21.1897 40.139 20.1068 35.1565ZM43.6598 16.0344C43.7952 16.3037 43.9306 16.4384 44.2013 16.5731C44.472 15.2264 45.6903 13.7452 45.4195 12.5332C44.472 13.4758 44.2013 14.8225 43.6598 16.0344ZM45.1488 17.785C45.4195 18.3237 45.8256 18.8623 46.0964 19.2663C47.0439 17.2464 47.8561 15.0918 48.3975 12.6679C47.9914 12.5332 47.45 12.5332 46.9085 12.5332C46.5024 14.6878 45.6903 16.1691 45.1488 17.785ZM42.0355 12.9372C41.3587 15.8998 39.599 18.593 39.4636 21.6902C40.6819 18.593 42.5769 16.1691 43.6598 12.9372C43.1184 12.9372 42.5769 12.9372 42.0355 12.9372ZM38.2453 13.8798C37.2978 18.3237 35.6735 22.6329 34.9966 27.0767C35.4027 26.8074 36.0795 26.9421 36.4856 26.6727C37.7039 22.0942 38.7868 17.381 40.4111 13.2065C40.2758 13.2065 40.2758 13.2065 40.1404 13.2065C39.599 13.4758 38.9222 13.6105 38.2453 13.8798ZM46.7732 20.8823C47.1792 21.2862 47.1792 22.0942 47.7207 22.3635C48.5329 19.1316 50.1572 16.8424 51.3755 14.0145C50.834 13.6105 50.2926 13.3412 49.6158 13.2065C48.939 16.0344 47.8561 18.593 46.7732 20.8823ZM37.0271 14.4185C37.0271 14.2838 36.8917 14.2838 36.7564 14.2838C36.3503 14.5531 35.8088 14.8225 35.2674 14.9571C34.9967 17.1117 34.1845 19.2663 33.3723 21.4209C32.5601 23.5755 31.8833 25.7301 31.3419 28.0194C32.0187 27.8847 32.6955 27.75 33.3723 27.6154C34.8613 23.4408 35.5381 18.593 37.0271 14.4185ZM48.8036 23.0369C48.6682 23.3062 48.2621 23.3062 48.1268 23.5755C48.3975 23.9795 48.3975 24.6528 48.939 24.9221C50.1572 21.4209 52.1877 18.7277 53.4059 15.3611C52.9998 15.2264 52.7291 14.9571 52.4584 14.8225C51.2401 17.5157 49.6158 19.805 48.8036 23.0369ZM30.6651 17.5157C30.8004 17.9197 31.2065 17.9197 31.2065 18.3237C30.1236 21.9596 28.3639 25.4608 27.5517 29.0967C28.2285 28.8273 29.0407 28.6927 29.7175 28.4233C30.9358 24.1142 32.8309 19.805 33.7784 15.4958C32.6955 16.3037 31.4772 16.7077 30.6651 17.5157ZM54.6242 16.0344C53.1352 19.6703 51.1048 22.7675 49.6158 26.4034C50.0219 26.6727 50.834 26.6727 51.5108 26.6727C53.1352 23.4408 55.5717 20.2089 56.79 16.9771C55.9778 16.8424 55.4363 16.3037 54.6242 16.0344ZM52.8645 26.9421C54.0827 26.9421 54.8949 27.2114 56.1132 27.2114C56.9253 24.1142 58.5497 21.6902 59.4972 18.7277C58.9558 18.3237 58.5497 17.9197 57.8729 17.6504C56.5192 21.1516 54.3534 23.8448 52.8645 26.9421ZM25.9274 23.3062C25.6567 23.4408 26.3335 23.5755 26.1981 24.1142C25.1152 27.2114 24.0323 30.174 23.2201 33.5405C22.9494 33.9445 22.408 33.5405 22.2726 34.0792C22.5433 34.7525 22.408 35.6951 22.6787 36.2338C23.7616 34.0792 24.1677 31.1166 25.9274 29.5006C27.281 25.8648 28.77 21.9596 29.7175 18.4583C28.4993 20.0743 26.8749 21.2862 25.9274 23.3062ZM40.1404 25.4608C39.599 26.5381 38.5161 28.6927 37.7039 28.962C37.1624 29.2313 36.4856 29.0967 35.9442 29.2313C33.1016 29.77 30.259 30.9819 27.281 31.7899C29.5822 33.0019 31.4772 34.7525 33.5077 36.2338C35.132 37.3111 35.6735 38.119 34.7259 40.139C33.5077 42.6975 31.3419 45.1215 30.6651 48.084C35.6735 48.2187 38.9222 47.5454 41.494 45.5255C42.4416 44.8521 43.9306 43.2362 45.0135 43.1015C46.5024 42.9669 47.45 44.1788 48.3975 44.9868C49.345 45.6601 50.1572 46.6028 50.9694 47.0067C53.2705 48.2187 55.4363 48.6227 58.685 48.488C57.1961 45.7948 55.7071 42.2936 53.812 40.0043C53.1352 39.1963 51.5108 38.2537 51.5108 37.1764C51.5108 35.5604 53.9474 34.4831 55.301 33.6752C56.9253 32.7325 58.4143 31.9246 59.6326 30.8473C58.685 30.5779 58.0082 29.9046 56.9253 29.6353C54.3534 28.8273 50.6987 29.5006 48.5329 28.6927C47.45 28.2887 46.3671 25.7301 45.6903 24.3835C44.6074 22.3635 44.0659 20.2089 42.8477 19.1316C42.1708 21.4209 41.2233 23.0369 40.1404 25.4608ZM57.0607 27.4807C57.4668 27.4807 57.8729 27.6154 58.1436 27.75C58.9558 25.5954 60.174 23.8448 60.7155 21.6902C60.8508 21.5556 60.8508 21.2862 61.2569 21.4209C60.9862 20.8823 60.5801 20.4783 60.174 20.0743C59.3618 22.4982 58.0082 24.7875 57.0607 27.4807ZM59.2265 28.2887C59.7679 28.4233 60.0387 28.6927 60.7155 28.8273C60.9862 27.0767 62.2045 25.9994 62.3398 23.9795C62.4752 23.8448 62.4752 23.5755 62.8813 23.7102C62.6105 23.1715 62.3398 22.4982 61.9337 22.2289C61.2569 24.3835 60.0387 26.1341 59.2265 28.2887ZM61.7984 29.366C63.152 30.3086 62.2045 32.1939 61.663 33.6752C60.5801 36.5031 58.685 39.4657 57.8729 42.1589C58.4143 42.6975 58.4143 43.6402 58.9558 44.0442C60.9862 39.0617 63.2873 34.0792 65.7239 29.366C65.3178 27.4807 64.5056 25.9994 63.5581 24.6528C63.2874 26.4034 62.2044 27.6154 61.7984 29.366ZM62.8813 38.3884C62.3398 39.4657 61.7984 40.5429 61.2569 41.7549C60.3094 43.7748 59.0911 45.6601 60.8508 47.0067C61.3923 45.1215 62.0691 43.2362 62.8813 41.3509C63.6934 39.4657 64.9117 37.8497 65.5885 36.3684C66.4007 34.7525 67.3482 32.7325 66.2653 31.2513C65.0471 33.0019 64.2349 35.5604 62.8813 38.3884ZM23.4909 37.5804C23.2201 37.715 22.8141 38.523 23.2201 38.7923C24.1677 37.0417 25.3859 35.6951 26.3335 33.8098C25.792 33.8098 25.792 33.2712 25.2506 33.1365C24.5738 34.7525 24.0323 36.0991 23.4909 37.5804ZM58.1436 34.8871C57.6021 36.5031 57.4668 38.523 56.3839 39.6003C56.79 39.8696 56.79 40.543 57.3314 40.6776C58.0082 37.9844 59.3618 36.0991 60.3094 33.6752C60.4447 33.6752 60.4447 33.5405 60.174 33.5405C59.6326 34.0792 58.8204 34.4831 58.1436 34.8871ZM27.4164 34.6178C26.0627 36.5031 24.8445 38.523 23.6262 40.543C23.7616 41.0816 23.897 41.6203 24.0323 42.0242C24.7091 40.8123 25.3859 39.6003 26.0627 38.523C26.7396 37.4457 27.5517 36.0991 28.9053 35.6951C28.9053 35.9644 29.3114 35.8298 29.1761 35.9644C29.0407 37.1764 27.5517 38.2537 26.6042 39.735C25.3859 41.6202 23.4909 43.7748 24.9798 45.7948C26.7396 42.8322 28.77 40.0043 30.5297 37.0417C29.7175 36.0991 28.77 35.1565 27.4164 34.6178ZM63.9642 42.0242C62.3398 45.5255 61.3923 49.8346 60.0387 52.7972C61.663 50.9119 62.7459 49.0267 63.9642 46.7374C65.7239 43.6402 67.4836 39.6003 67.2129 35.4258C66.2653 37.5804 64.9117 39.6003 63.9642 42.0242ZM54.4888 37.3111C54.8949 37.715 55.301 38.119 55.7071 38.523C55.9778 37.715 56.5192 36.6377 56.5192 35.8298C55.8424 36.2338 54.8949 36.6377 54.4888 37.3111ZM31.6126 37.8497C29.8529 41.0816 27.4164 43.6402 25.9274 47.1414C26.1981 47.6801 26.4688 47.9494 26.7396 48.3534C29.0407 45.3908 30.259 41.4856 32.4248 38.2537C32.154 38.119 32.0187 37.8497 31.6126 37.8497ZM45.2842 45.6601C44.3366 46.8721 42.8477 47.1414 41.7648 48.2187C40.8172 49.1613 40.0051 50.9119 39.3282 52.2586C38.5161 53.7399 37.7039 55.0865 37.2978 56.5678C38.11 56.8371 39.1929 56.8371 40.2758 56.8371C41.2233 52.3932 44.6074 49.5653 45.6903 45.5255C45.5549 45.6601 45.4195 45.6601 45.2842 45.6601ZM41.6294 56.8371C42.1708 56.8371 42.7123 56.8371 43.2537 56.8371C44.0659 54.6825 46.5024 51.3159 47.5853 49.0267C47.5853 48.892 48.1268 47.2761 48.1268 47.5454C47.9914 47.0067 46.9085 47.0067 46.7732 46.7374C45.2842 50.3733 42.7123 52.7972 41.6294 56.8371ZM27.6871 49.296C28.0932 49.8346 28.6346 50.2386 29.1761 50.7773C29.3114 50.508 29.4468 50.3733 29.4468 49.9693C28.9054 49.5653 28.9054 48.7574 28.3639 48.3534C28.0932 48.7574 27.6871 48.892 27.6871 49.296ZM44.6074 56.9718C45.4195 57.1064 46.0963 57.5104 47.1792 57.3757C47.8561 54.2785 49.345 51.9892 50.4279 49.296C49.7511 49.0267 49.345 48.6227 48.8036 48.3534C47.8561 51.5853 45.8256 53.8745 44.6074 56.9718ZM36.8917 50.104C35.8088 51.8546 34.8613 53.6052 34.0491 55.4905C34.8613 55.6251 35.2674 56.1638 36.0795 56.2984C37.1624 53.8745 38.3807 51.5853 39.7343 49.4307C38.7868 49.5653 37.9746 49.9693 36.8917 50.104ZM51.6462 49.8346C50.5633 52.3932 49.2097 54.6825 48.3975 57.5104C49.2097 57.5104 49.6158 57.3757 50.4279 57.3757C50.834 54.8172 52.5937 52.7972 53.5413 50.3733C52.7291 50.2386 52.323 49.9693 51.6462 49.8346ZM31.8833 53.6052C32.2894 53.8745 32.6955 54.6825 33.2369 54.5478C33.643 52.7972 34.5906 51.7199 35.2674 50.2386C32.8309 49.9693 33.1016 52.5279 31.8833 53.6052ZM30.1236 51.4506C30.259 51.9892 30.8004 52.2586 31.0711 52.5279C31.4772 51.8546 32.0187 51.1813 32.2894 50.3733C31.748 50.3733 31.0711 50.3733 30.5297 50.3733C30.3943 50.7773 30.259 51.1813 30.1236 51.4506ZM54.6242 50.7773C53.812 53.0665 52.4584 54.8172 51.6462 57.1064C52.4584 57.1064 52.8645 56.7024 53.6766 56.7024C54.4888 54.8172 55.301 53.0665 56.1132 51.1813C55.7071 50.9119 55.301 50.7773 54.6242 50.7773ZM57.7375 51.0466C56.9253 52.6626 56.1132 54.2785 55.4363 56.0291C58.1436 55.7598 58.4143 52.9319 59.2265 50.9119C58.685 50.9119 58.4143 51.1813 57.7375 51.0466Z" fill="#9EAF7C"/>
<path fill-rule="evenodd" clip-rule="evenodd" d="M29.1761 14.8225C29.0407 14.9571 28.9054 14.9571 28.77 15.0918C27.281 14.5531 27.1456 12.5332 25.5213 11.9945C26.6042 9.70529 28.9054 13.3412 29.1761 14.8225Z" fill="#9EAF7C"/>
<path fill-rule="evenodd" clip-rule="evenodd" d="M26.7396 16.8424C25.792 18.189 25.386 16.3037 24.5738 15.3611C24.3031 15.0918 22.6787 13.7452 24.3031 13.6105C25.386 13.4758 26.4689 15.8998 26.7396 16.8424Z" fill="#9EAF7C"/>
<path fill-rule="evenodd" clip-rule="evenodd" d="M25.2506 18.997C25.1152 19.1317 25.1152 19.1317 24.9798 19.2663C24.1677 19.5356 23.7616 18.7277 23.2201 18.0544C22.814 17.5157 20.919 15.6304 22.814 15.7651C23.4909 15.7651 24.9798 18.189 25.2506 18.997Z" fill="#9EAF7C"/>
<path fill-rule="evenodd" clip-rule="evenodd" d="M23.7616 21.4209C22.9494 22.4982 22.1372 20.7476 21.4604 19.9396C20.7836 19.1316 19.9714 18.593 19.9714 17.9197C20.7836 16.7077 21.8665 18.4583 22.5433 19.401C23.0848 20.0743 23.7616 20.7476 23.7616 21.4209Z" fill="#9EAF7C"/>
<path fill-rule="evenodd" clip-rule="evenodd" d="M6.97668 18.4583C7.92422 18.4583 7.11204 20.3436 6.84132 21.5556C6.29987 24.7875 5.75842 28.8273 6.02915 32.8672C6.16451 35.0218 7.11204 37.1764 7.65349 39.331C8.05958 40.9469 8.3303 42.2936 9.00712 43.5055C9.54856 44.7175 10.6315 45.2561 10.3607 46.7374C9.27784 47.0067 8.60103 45.3908 8.05958 44.4482C7.51813 43.5055 6.97668 42.1589 6.70596 41.0816C6.02915 38.6577 5.08161 35.8298 4.81089 33.4058C4.4048 27.8847 4.94625 22.6329 6.43523 18.593C6.84132 18.593 6.97668 18.189 6.97668 18.4583Z" fill="#9EAF7C"/>
<path fill-rule="evenodd" clip-rule="evenodd" d="M18.3471 20.3436C19.0239 19.805 20.3775 21.5556 20.919 22.2289C21.5958 23.0369 22.6787 24.6528 21.4604 24.7875C20.919 24.7875 20.2421 23.3062 19.7007 22.7675C19.1593 22.0942 17.3995 21.0169 18.3471 20.3436Z" fill="#9EAF7C"/>
<path fill-rule="evenodd" clip-rule="evenodd" d="M72.6274 21.6903C72.492 22.0942 71.6798 22.3636 71.4091 21.9596C71.1384 20.613 72.6274 20.7476 72.6274 21.6903Z" fill="#9EAF7C"/>
<path fill-rule="evenodd" clip-rule="evenodd" d="M43.1184 22.0942C43.9306 23.5755 43.7952 25.7301 43.9306 28.154C44.0659 29.77 44.6074 31.6552 43.7952 32.5979C42.3062 32.5979 42.8477 30.5779 42.8477 29.0967C42.8477 27.6154 42.7123 25.9994 42.5769 24.7875C42.4416 23.8448 42.0355 23.0369 42.3062 22.4982C42.3062 21.9596 42.8477 22.0942 43.1184 22.0942Z" fill="#9EAF7C"/>
<path fill-rule="evenodd" clip-rule="evenodd" d="M20.1068 27.0767C19.9714 27.0767 19.8361 27.2114 19.8361 27.346C18.8885 27.346 18.4825 26.4034 18.0764 25.8648C17.6703 25.3261 16.9935 24.6528 16.9935 23.8448C18.0764 22.6329 19.7007 26.1341 20.1068 27.0767Z" fill="#9EAF7C"/>
<path fill-rule="evenodd" clip-rule="evenodd" d="M19.5654 30.9819C17.941 30.7126 17.6703 29.2313 16.5874 28.4234C16.9935 26.2688 20.6483 30.4433 19.5654 30.9819Z" fill="#9EAF7C"/>
<path fill-rule="evenodd" clip-rule="evenodd" d="M80.3431 28.962C81.0199 28.6927 81.5613 31.5206 81.6967 32.3286C82.1028 35.1565 81.9674 38.6577 82.1028 42.1589C82.3735 47.4107 81.6967 51.3159 80.2077 55.2212C79.8016 56.4331 78.8541 57.7797 78.1773 58.857C77.5004 60.069 77.2297 61.6849 76.0115 61.9543C75.0639 61.5503 75.8761 60.7423 76.1468 60.3383C78.1773 56.7024 80.4784 52.2586 81.0199 46.8721C81.1552 45.3908 80.8845 43.9095 80.7491 42.1589C80.4784 38.927 80.7491 35.4258 80.4784 32.7326C80.3431 31.3859 79.6662 30.4433 80.0723 29.2313C80.0723 29.0967 80.2077 29.0967 80.3431 28.962Z" fill="#9EAF7C"/>
<path fill-rule="evenodd" clip-rule="evenodd" d="M52.0523 32.4632C51.5108 33.0019 50.834 33.1365 49.7511 33.2712C48.1268 33.5405 46.0963 35.2911 45.1488 33.9445C45.6903 32.8672 48.3975 32.5979 50.2926 31.9246C50.834 31.7899 51.2401 31.2513 51.6462 31.1166C52.5937 30.8473 55.0302 30.3086 54.8949 31.3859C54.6242 32.4632 53.1352 32.1939 52.0523 32.4632Z" fill="#9EAF7C"/>
<path fill-rule="evenodd" clip-rule="evenodd" d="M1.96828 31.2513C2.50973 31.7899 1.96828 32.1939 1.96828 32.8672C1.96828 34.4832 3.59263 36.0991 2.50973 37.0417C1.02074 36.2338 0.20857 33.0019 1.15611 31.1166C1.42683 31.1166 1.83292 31.1166 1.96828 31.2513Z" fill="#9EAF7C"/>
<path fill-rule="evenodd" clip-rule="evenodd" d="M30.9358 32.0592C30.9358 31.5206 31.2065 31.2513 31.8833 31.2513C33.1016 31.3859 34.3198 32.1939 35.6735 32.4632C36.8917 32.7325 38.6514 32.8672 39.7343 33.0019C40.8172 33.1365 42.0355 33.0019 41.9001 33.8098C41.7648 34.6178 40.8172 34.2138 40.4111 34.0792C36.7564 33.9445 33.5077 33.4058 30.9358 32.0592Z" fill="#9EAF7C"/>
<path fill-rule="evenodd" clip-rule="evenodd" d="M43.2537 35.0218C41.9001 32.8672 45.8256 34.3485 43.2537 35.0218V35.0218Z" fill="#9EAF7C"/>
<path fill-rule="evenodd" clip-rule="evenodd" d="M42.7123 36.0991C42.577 37.7151 41.3587 37.9844 40.5465 38.927C39.7343 40.2736 38.7868 41.3509 37.7039 42.4282C36.621 43.5055 35.6735 44.7175 34.1845 45.2562C33.3723 44.4482 34.4552 43.7749 34.9967 43.3709C36.621 41.8896 38.3807 40.0043 39.599 38.119C40.4112 37.4457 41.088 36.7724 41.7648 35.9645C41.7648 35.8298 42.0355 35.8298 42.0355 35.6951C42.4416 35.6951 42.4416 35.9645 42.7123 36.0991Z" fill="#9EAF7C"/>
<path fill-rule="evenodd" clip-rule="evenodd" d="M19.9714 38.2537C19.8361 38.3884 19.7007 38.3884 19.5654 38.523C18.4825 38.119 18.0764 37.3111 17.6703 36.2338C18.6178 35.2911 19.7007 37.1764 19.9714 38.2537Z" fill="#9EAF7C"/>
<path fill-rule="evenodd" clip-rule="evenodd" d="M55.4364 46.6028C53.5413 46.7374 52.5938 44.9868 51.3755 43.7749C50.2926 42.8322 48.939 41.7549 47.5854 40.543C47.1793 40.139 44.0659 37.7151 44.2013 36.9071C44.2013 36.5031 44.3367 36.6378 44.6074 36.3684C45.6903 36.6378 47.3146 38.523 48.3975 39.6003C49.6158 40.8123 51.1048 41.8896 52.1877 42.8322C52.7291 43.3709 53.2706 44.1789 53.812 44.7175C54.6242 45.2562 55.8425 45.1215 55.4364 46.6028Z" fill="#9EAF7C"/>
<path fill-rule="evenodd" clip-rule="evenodd" d="M73.8456 49.0267C72.492 49.4307 72.2213 47.2761 71.8152 46.6028C72.8981 45.3908 74.1163 47.8147 73.8456 49.0267Z" fill="#9EAF7C"/>
<path fill-rule="evenodd" clip-rule="evenodd" d="M84.2684 47.1414C84.6745 49.0267 84.4038 51.0466 83.8624 53.2012C83.5916 54.0092 83.3209 55.4905 82.7795 55.6251C81.4258 55.7598 82.9148 52.2586 83.0502 50.7773C83.1855 49.5653 83.0502 48.2187 83.3209 47.2761C83.4563 47.0067 83.9977 47.0067 84.2684 47.1414Z" fill="#9EAF7C"/>
<path fill-rule="evenodd" clip-rule="evenodd" d="M70.597 56.1638C69.7848 57.3757 69.3787 55.8945 69.108 55.3558C68.7019 54.5478 67.2129 53.2012 67.3483 52.5279C67.7544 50.7773 69.3787 53.6052 69.6494 54.0092C70.1909 54.6825 70.4616 55.0865 70.597 56.1638Z" fill="#9EAF7C"/>
<path fill-rule="evenodd" clip-rule="evenodd" d="M36.3503 77.1711C35.132 77.3058 34.726 75.8245 34.0491 75.0165C33.3723 74.0739 32.6955 73.1312 32.0187 72.4579C30.259 69.3607 28.4993 66.8021 26.4689 63.7049C25.1152 61.6849 23.7616 59.665 22.2726 57.1064C21.8665 56.4331 20.3776 54.4132 21.7312 54.2785C22.5434 54.2785 23.0848 56.1638 23.4909 56.8371C26.4689 61.6849 30.1236 67.2061 33.6431 72.0539C34.1845 72.8619 34.8613 73.6699 35.4028 74.4778C35.6735 75.2858 36.7564 76.2285 36.3503 77.1711Z" fill="#9EAF7C"/>
<path fill-rule="evenodd" clip-rule="evenodd" d="M67.0775 54.5478C67.4836 55.0865 67.7543 56.0291 68.025 56.8371C68.2957 57.5104 69.2433 58.3184 68.2957 58.857C67.6189 58.857 64.7763 54.4132 67.0775 54.5478Z" fill="#9EAF7C"/>
<path fill-rule="evenodd" clip-rule="evenodd" d="M67.0775 60.2037C66.9421 60.473 66.6714 60.6076 66.536 60.7423C65.047 59.9343 64.6409 58.1837 64.2349 56.4331C64.3702 56.4331 64.7763 55.8945 64.9117 56.1638C66.1299 57.1064 66.2653 58.9917 67.0775 60.2037Z" fill="#9EAF7C"/>
<path fill-rule="evenodd" clip-rule="evenodd" d="M65.4532 63.7049C64.3703 64.1089 64.2349 63.0316 63.9642 62.3582C63.4227 61.2809 62.7459 59.9343 62.3398 58.857C63.4227 57.3757 64.0996 59.7997 64.641 60.877C65.1825 62.2236 65.8593 63.1662 65.4532 63.7049Z" fill="#9EAF7C"/>
<path fill-rule="evenodd" clip-rule="evenodd" d="M63.4227 66.5328C62.2044 66.5328 62.0691 65.1862 61.663 64.3782C60.9862 62.8969 60.3094 61.6849 59.4972 60.473C60.5801 59.1264 61.7983 61.6849 62.4752 62.8969C63.152 64.2435 63.8288 65.7248 63.4227 66.5328Z" fill="#9EAF7C"/>
<path fill-rule="evenodd" clip-rule="evenodd" d="M57.4668 63.0316C58.6851 61.9543 59.4972 64.5128 60.0387 65.7248C60.4448 66.5328 61.9338 68.822 60.8509 69.0914C59.9033 69.3607 59.3619 66.8021 58.9558 66.1288C58.4143 65.0515 57.8729 64.3782 57.4668 63.0316Z" fill="#9EAF7C"/>
<path fill-rule="evenodd" clip-rule="evenodd" d="M56.3839 66.3981C57.1961 67.8794 58.8205 69.63 58.5497 71.3806C58.4144 71.3806 58.4144 71.3806 58.279 71.5153C57.3315 71.5153 57.1961 70.438 56.9254 69.7647C56.5193 68.822 55.5718 67.8794 55.4364 66.6674C55.7071 66.3981 55.9778 66.2634 56.3839 66.3981Z" fill="#9EAF7C"/>
<path fill-rule="evenodd" clip-rule="evenodd" d="M29.7175 79.7297C28.6346 79.4604 27.6871 78.5177 27.0103 77.7098C25.1152 75.4205 23.4908 72.8619 22.0019 70.438C21.4604 69.4954 20.5129 68.5527 20.5129 67.3408C21.4604 66.3981 22.2726 68.6874 22.814 69.4954C24.303 72.0539 26.0627 74.7472 27.8224 76.7671C28.6346 77.7098 30.259 78.2484 29.7175 79.7297Z" fill="#9EAF7C"/>
<path fill-rule="evenodd" clip-rule="evenodd" d="M56.9253 74.4779C55.9778 75.4205 55.5717 74.0739 55.1656 72.9966C54.6241 71.65 53.4059 70.1687 53.4059 69.0914C53.6766 68.8221 53.812 68.6874 54.2181 68.8221C55.301 70.5727 56.3839 72.3233 56.9253 74.4779Z" fill="#9EAF7C"/>
<path fill-rule="evenodd" clip-rule="evenodd" d="M51.3755 70.438C52.4584 69.226 52.9998 71.3806 53.5413 72.5926C54.0827 73.8045 54.6242 74.6125 54.8949 75.2858C55.1656 76.0938 55.1656 76.7671 54.6242 76.7671C53.812 76.9018 53.1352 74.2085 52.8645 73.5352C52.323 72.4579 51.5109 71.5153 51.3755 70.438Z" fill="#9EAF7C"/>
<path fill-rule="evenodd" clip-rule="evenodd" d="M65.7239 71.246C65.9946 72.5926 65.0471 74.0739 64.5056 75.1512C63.9642 76.2285 63.4227 77.7098 62.3398 77.9791C61.3923 77.3058 62.7459 75.6898 63.152 74.7472C63.6935 73.6699 64.3703 72.5926 64.641 71.3806C64.641 71.246 64.7764 71.246 64.9117 71.1113C65.3178 71.1113 65.4532 71.246 65.7239 71.246Z" fill="#9EAF7C"/>
<path fill-rule="evenodd" clip-rule="evenodd" d="M52.8645 79.0564C51.3755 79.3257 51.1048 77.3058 50.6987 76.2285C50.1573 74.8818 49.4804 73.6699 49.2097 72.5926C50.2926 71.5153 51.2402 74.2085 51.7816 75.4205C52.323 76.9018 52.9999 78.1137 52.8645 79.0564Z" fill="#9EAF7C"/>
<path fill-rule="evenodd" clip-rule="evenodd" d="M50.2926 82.6922C48.939 82.4229 49.2097 80.403 48.8036 79.191C48.3975 77.9791 47.3146 77.0364 47.1793 75.9591C47.9914 74.6125 49.4804 77.4404 49.8865 78.5177C50.428 79.999 50.834 81.8843 50.2926 82.6922Z" fill="#9EAF7C"/>
<path fill-rule="evenodd" clip-rule="evenodd" d="M44.0659 77.0364C44.8781 76.6325 46.2317 79.595 46.7731 80.807C47.45 82.019 48.9389 84.9815 47.856 85.2508C46.9085 85.5202 46.0963 82.1536 45.6902 81.3456C45.2842 80.5377 44.8781 79.8644 44.6074 79.3257C44.2013 78.6524 43.2537 77.4404 44.0659 77.0364Z" fill="#9EAF7C"/>
<path fill-rule="evenodd" clip-rule="evenodd" d="M46.2317 88.3481C45.8256 88.6174 45.2842 88.3481 45.2842 87.9441C45.1488 88.2134 45.0134 88.4827 44.472 88.3481C43.1184 87.4054 41.9001 86.1935 40.6819 84.8468C40.1404 84.1735 39.1929 83.5002 39.4636 82.5576C40.8172 82.2883 41.3587 83.9042 42.0355 84.7122C42.8477 85.6548 43.9306 86.3281 44.6074 87.1361C44.0659 85.2508 42.1708 82.6922 40.8172 80.403C40.6819 80.1337 38.7868 77.5751 40.4111 77.5751C40.9526 77.5751 41.7648 79.4603 42.1708 80.1337C43.2537 81.8843 44.2013 83.5002 45.2842 85.3855C45.961 86.3281 46.6378 87.2708 46.2317 88.3481Z" fill="#9EAF7C"/>
<path fill-rule="evenodd" clip-rule="evenodd" d="M37.7039 80.2683C37.9746 77.9791 39.599 81.211 37.7039 80.2683V80.2683Z" fill="#9EAF7C"/>
<path fill-rule="evenodd" clip-rule="evenodd" d="M45.2842 94.9465C45.2842 96.1585 42.983 96.0238 41.9001 95.7545C41.0879 95.4852 40.6819 94.6772 40.8172 94.1385C41.494 93.5999 41.9001 94.2732 42.4416 94.5425C43.3891 94.5425 44.8781 94.1385 45.2842 94.9465Z" fill="#9EAF7C"/>
<path fill-rule="evenodd" clip-rule="evenodd" d="M38.7868 98.8517C38.5161 99.929 37.4332 100.602 36.7564 101.41C35.4027 103.026 33.7784 104.508 32.154 105.989C31.3419 106.662 30.8004 107.874 29.5822 108.009C28.77 106.931 30.1236 106.258 30.9358 105.45C31.6126 104.777 32.4248 104.104 33.1016 103.43C34.8613 101.68 36.0795 99.7944 37.7039 98.7171C37.9746 98.5824 38.6514 98.3131 38.7868 98.8517Z" fill="#9EAF7C"/>
<path fill-rule="evenodd" clip-rule="evenodd" d="M32.9662 108.682C32.1541 107.201 34.0491 106.662 34.9967 105.585C37.1625 103.43 38.6515 100.333 40.9526 99.1211C41.3587 98.8518 41.7648 99.5251 41.7648 99.5251C42.0355 100.333 40.2758 101.141 39.8697 101.545C38.3807 103.026 36.7564 105.585 34.8613 107.201C34.4552 107.739 33.7784 108.547 32.9662 108.682Z" fill="#9EAF7C"/>
<path fill-rule="evenodd" clip-rule="evenodd" d="M44.3366 100.333C44.3366 101.276 43.3891 101.949 42.8476 102.757C42.3062 103.43 41.7647 104.238 41.0879 104.777C39.7343 106.258 38.11 107.47 37.1624 108.547C36.621 109.086 36.3503 110.298 35.5381 109.221C36.2149 107.201 38.11 106.124 39.4636 104.777C40.8172 103.161 42.0355 101.545 43.6598 100.064C43.9305 100.064 44.0659 100.333 44.3366 100.333Z" fill="#9EAF7C"/>
<path fill-rule="evenodd" clip-rule="evenodd" d="M29.4468 103.565C28.6346 103.7 28.3639 105.316 26.8749 105.316C26.1981 104.508 27.281 103.7 28.0932 102.892C28.9054 102.084 30.1236 100.468 31.0711 101.545C31.6126 101.141 32.2894 100.468 32.9662 101.141C33.1016 101.814 32.6955 102.084 32.154 102.218C30.5297 103.834 29.4468 105.989 27.1456 106.931C27.0103 106.797 26.8749 106.662 26.7396 106.662C27.1456 104.912 28.9054 104.777 29.4468 103.565Z" fill="#9EAF7C"/>
<path fill-rule="evenodd" clip-rule="evenodd" d="M51.3755 101.41C51.2402 102.218 50.5633 102.353 50.0219 102.892C49.0744 103.7 48.3975 104.777 47.45 105.585C46.5025 106.393 45.4196 107.201 44.6074 108.009C44.066 108.547 43.7952 109.625 42.8477 109.49C42.3062 107.739 44.472 106.662 45.6903 105.72C47.3146 104.238 48.6683 102.488 50.2926 101.141C50.9694 100.737 51.2402 101.006 51.3755 101.41Z" fill="#9EAF7C"/>
<path fill-rule="evenodd" clip-rule="evenodd" d="M47.1793 101.814C47.0439 102.757 46.0964 103.296 45.4196 103.834C43.7952 105.316 42.1709 107.201 40.2758 108.682C40.4112 109.355 38.2454 110.971 38.3807 109.355C38.3807 108.682 39.599 107.605 40.0051 107.335C40.8172 106.527 41.6294 105.989 42.577 105.046C44.2013 103.565 44.7428 102.353 46.2317 101.545C46.5025 101.276 47.1793 101.545 47.1793 101.814Z" fill="#9EAF7C"/>
<path fill-rule="evenodd" clip-rule="evenodd" d="M53.4059 102.353C52.5937 103.7 51.2401 104.777 50.1572 105.854C48.9389 106.931 47.856 108.009 46.6378 109.086C46.5024 109.759 46.3671 110.433 45.8256 110.433C44.3366 110.433 45.6902 108.547 46.0963 108.143C48.1268 105.854 50.9694 103.7 52.5937 101.949C52.9998 101.814 53.1352 102.084 53.4059 102.353Z" fill="#9EAF7C"/>
<path fill-rule="evenodd" clip-rule="evenodd" d="M49.345 109.49C49.0743 109.49 49.0743 109.221 48.8036 109.221C48.939 107.335 50.2926 106.393 51.9169 105.046C52.9998 104.104 53.9474 103.161 54.6242 102.488C54.7595 102.488 54.8949 102.488 55.0302 102.488C55.9778 103.296 53.9474 104.912 52.9998 105.72C51.5108 107.335 50.5633 108.143 49.345 109.49Z" fill="#9EAF7C"/>
<path fill-rule="evenodd" clip-rule="evenodd" d="M56.3838 104.642C56.7899 105.585 55.8424 106.258 54.8949 107.066C54.2181 107.739 52.8644 109.759 52.1876 108.547C52.7291 107.47 54.4888 105.316 55.707 104.642C55.8424 104.508 56.2485 104.642 56.3838 104.642Z" fill="#9EAF7C"/>
</g>
<defs>
<clipPath id="clip0_18_597">
<rect width="83.6538" height="110.423" fill="white" transform="translate(0.75 0.00961304)"/>
</clipPath>
</defs>
</svg>
