<svg width="84" height="104" viewBox="0 0 84 104" fill="none" xmlns="http://www.w3.org/2000/svg">
<g clip-path="url(#clip0_18_559)">
<path fill-rule="evenodd" clip-rule="evenodd" d="M40.9351 6.6113C42.2525 5.95256 43.1747 4.89859 44.2286 3.97636C45.8094 2.65889 47.2586 0.682692 50.0251 0.814439C50.9472 1.86841 50.4203 3.71287 50.552 5.42558C50.6838 6.6113 50.9472 8.32401 51.079 9.64147C53.582 8.45575 55.4263 7.27003 58.5881 6.6113C59.5102 6.3478 62.145 5.68907 62.4085 6.87479C62.6719 7.66527 61.7498 8.71925 61.618 9.37798C60.9593 11.7494 60.5641 14.5161 60.1689 16.7558C61.7498 16.8875 63.5941 16.8875 65.5702 16.8875C67.2828 16.8875 69.9175 16.4923 70.3128 17.678C70.708 19.1272 69.3906 19.6542 68.7319 20.313C67.2828 21.8939 66.0971 24.2654 64.9115 25.9781C67.2828 26.2416 68.9954 27.0321 70.8397 27.9543C71.8936 28.4813 73.6062 29.5352 73.738 30.4575C73.8697 31.2479 73.0793 32.1702 72.4206 32.5654C70.708 34.0146 68.0732 34.9369 66.6241 36.6496C68.6002 38.2305 70.8397 39.4162 72.9475 40.9972C73.738 41.5242 75.0554 42.3147 75.0554 43.1052C75.0554 44.1591 73.0793 45.2131 72.0254 45.4766C70.708 45.8718 69.3906 45.8718 68.3367 46.2671C67.4145 46.5306 66.4924 47.0576 65.7019 47.3211C67.151 49.429 68.9954 51.01 69.9175 53.3814C70.181 54.3036 71.6301 54.6989 71.2349 56.0163C70.5762 57.8608 65.5702 55.8846 64.2528 55.7528C63.3306 55.6211 62.145 55.8846 61.618 55.7528C60.9593 58.6513 60.3007 61.418 57.9294 62.6037C59.642 67.8735 62.8037 73.2752 65.0432 78.8085C65.4384 79.8625 66.3606 80.653 66.7558 81.707C67.0193 82.234 67.0193 82.6292 67.151 83.1562C67.5463 83.9467 68.3367 84.4736 68.7319 85.2641C68.9954 85.7911 68.9954 86.3181 69.2589 86.9768C69.6541 87.7673 70.3128 88.6895 70.5762 89.48C71.2349 92.3785 69.7858 93.0372 67.4145 91.9832C65.175 91.061 63.4624 89.6118 61.7498 88.2943C61.2228 90.9292 62.9354 96.3309 60.5641 96.5943C59.3785 96.7261 57.9294 94.8816 56.8755 94.0912C54.6359 92.5102 51.8694 91.061 49.6298 89.6118C49.3664 91.1927 48.9712 92.6419 48.5759 94.4864C48.3125 95.5404 48.1807 98.4388 46.5999 98.3071C45.4142 98.3071 45.1507 96.1991 44.7555 95.0134C44.3603 93.5642 43.8334 92.3785 43.4381 91.3245C42.516 88.5578 41.8573 85.9229 41.0669 83.5514C39.2225 78.0181 37.3782 73.4069 35.2704 69.0593C33.6895 72.8799 31.8452 77.8863 30.396 82.4974C29.2104 86.5816 28.1565 89.2165 27.2343 93.0372C26.8391 94.6181 26.5756 96.9896 26.1804 98.834C25.7852 100.547 25.2583 103.182 23.8091 103.577C21.9648 103.972 21.1744 102.523 20.3839 101.601C18.6713 103.313 17.6174 101.337 16.827 99.6245C16.0366 97.9118 15.3779 96.7261 14.9827 95.0134C13.797 95.0134 13.0066 96.3309 11.8209 97.1213C11.5575 97.3848 10.8988 97.3848 10.5036 97.6483C9.71313 98.0436 8.00053 99.361 6.81489 98.5706C5.76098 97.9118 6.41967 95.8039 6.55141 94.8816C6.94662 91.9832 6.94662 89.3483 7.73705 87.2403C6.41967 87.5038 5.36576 88.426 3.91664 89.0848C3.12621 89.48 0.0962302 90.6657 -0.167247 88.8213C-0.298985 88.0308 1.54535 85.7911 2.33578 84.6054C3.25795 83.4197 4.04838 81.5752 4.83881 80.3895C5.36576 79.8625 5.76098 79.7308 6.02446 79.3355C6.28793 78.8085 6.41967 78.2815 6.68315 77.8863C7.73705 76.3053 8.65922 74.8561 9.58139 73.1434C9.97661 72.2212 10.2401 71.4307 10.6353 70.5085C11.0305 69.718 11.6892 69.0593 12.0844 68.2688C13.1383 66.4243 14.0605 64.7116 14.8509 62.8672C15.7731 60.7592 17.0905 58.6513 17.354 56.2798C17.7492 52.9862 16.9587 50.483 18.0126 47.9798C16.1683 48.5068 13.5335 48.5068 11.0305 48.7703C10.2401 48.902 9.71313 49.1655 9.18618 48.902C8.52748 48.375 9.05444 46.6623 9.31791 46.1353C10.5036 43.7639 12.8748 41.3924 14.4557 39.548C13.1383 38.6258 11.8209 38.0988 10.3718 37.0448C9.31791 36.2543 7.07836 35.3321 7.2101 33.7511C7.34184 32.8289 8.79096 32.3019 9.71313 31.7749C11.5575 30.5892 13.2701 29.9305 15.2461 28.7448C14.4557 26.3733 12.0844 24.0019 11.0305 21.1034C10.6353 20.1812 9.84487 18.8637 10.5036 18.0733C11.4257 16.7558 16.4318 18.205 18.2761 17.678C19.0666 14.9113 17.0905 8.19226 19.4618 7.13829C20.6474 6.6113 23.5457 7.79702 24.3361 8.19226C25.9169 8.98274 26.9709 9.64147 28.5517 10.1685C28.9469 8.98274 30.0008 7.53352 30.2643 5.55732C30.5278 3.84462 29.8691 0.287452 31.7134 0.550946C32.5039 0.682692 35.5338 2.00016 36.3243 2.52715C38.0369 3.84462 39.0908 5.95256 40.9351 6.6113ZM31.7134 8.98274C31.45 9.50973 31.0547 10.0367 30.7913 10.6954C30.5278 11.4859 30.3961 12.1447 30.0008 12.5399C28.8152 13.4621 26.9709 12.2764 25.6535 11.6177C23.9409 10.8272 22.887 9.77322 20.7792 9.64147C20.6474 12.8034 20.9109 16.3606 20.6474 19.3907C19.1983 20.7082 15.5096 19.786 13.0066 20.0495C13.5335 21.4987 14.5874 22.9479 15.5096 24.3971C16.4318 25.8463 17.8809 27.8225 17.6174 29.2717C17.4857 30.4575 16.1683 30.5892 15.1144 31.2479C13.6653 32.0384 11.6892 33.3559 10.2401 34.0146C11.1623 35.3321 12.7431 35.8591 14.324 36.6496C15.1144 37.0448 17.0905 37.967 17.2222 38.7575C17.4857 40.3385 15.5096 41.6559 14.7192 42.7099C13.6653 44.0274 12.7431 45.0814 12.0844 46.5306C13.2701 46.0036 14.324 46.3988 15.6414 46.2671C17.0905 46.1353 18.4079 44.9496 19.7252 45.2131C21.5696 45.4766 20.3839 47.848 20.1205 49.429C19.857 51.4052 19.5935 53.7766 19.857 56.0163C21.3061 55.6211 22.4918 55.0941 23.9409 54.4354C24.863 54.0401 27.3661 52.8544 28.42 53.1179C29.6056 53.3814 30.1326 55.7528 30.5278 56.9386C31.1865 58.6513 31.5817 59.9687 31.9769 61.418C33.426 60.6275 34.0847 58.6513 35.1386 57.2021C35.5338 56.6751 36.456 55.7528 37.2464 55.7528C38.5638 55.7528 39.7495 57.8608 40.9351 58.9148C42.6477 60.364 44.0968 61.6815 45.6777 63.1307C46.0729 62.0767 46.8633 61.1545 47.3903 59.9687C48.049 58.3878 48.7077 54.8306 50.4203 54.5671C51.6059 54.4354 52.3964 55.8846 53.1868 56.5433C54.7676 58.1243 56.085 58.9148 57.5341 60.2322C58.4563 59.4418 58.9833 57.8608 59.115 56.0163C59.2467 55.0941 58.8515 53.7766 59.2467 53.1179C60.1689 51.4052 61.3546 53.6449 62.0133 53.9084C62.8037 54.1719 63.5941 53.7766 64.5163 53.9084C65.7019 54.0401 66.6241 54.6989 67.678 54.6989C66.6241 52.7227 65.3067 51.01 63.8576 49.2973C62.0133 47.0576 63.3306 46.2671 65.5702 45.3449C67.5463 44.5544 69.6541 44.0274 71.7619 43.6321C70.0493 41.9194 68.2049 41.129 66.0971 39.6797C65.0432 39.021 63.4624 38.2305 63.5941 36.9131C63.7258 36.3861 64.5163 35.8591 65.0432 35.3321C66.8876 33.7511 68.7319 32.5654 70.5762 31.5114C69.2589 30.3257 67.0193 29.0083 64.9115 28.7448C63.4624 28.4813 62.4085 28.613 62.145 27.559C61.7498 26.1098 63.1989 24.2654 63.9893 23.2114C64.9115 21.7622 65.8337 20.9717 66.4924 19.5225C63.8576 19.5225 61.0911 19.5225 58.4563 19.5225C57.5341 19.1272 57.4024 17.8098 57.6659 16.6241C57.9294 14.2526 58.9833 10.9589 59.2467 8.98274C56.612 9.37798 54.8994 10.5637 52.9233 11.4859C52.2646 11.7494 51.4742 12.5399 50.552 12.4082C47.9172 12.1447 48.7077 6.3478 48.3125 3.58112C46.4681 4.6351 44.7555 6.6113 43.0429 7.92877C42.516 8.32401 41.5938 8.98274 41.0669 8.98274C40.013 8.98274 38.3004 7.66527 37.3782 6.87479C35.6656 5.55732 35.0069 3.84461 32.6356 3.44937C32.6356 5.16208 32.3721 7.13829 31.7134 8.98274ZM23.1504 72.2212C22.887 72.8799 22.36 73.4069 22.2283 74.0656C21.9648 74.5926 22.0965 76.0419 21.3061 76.0419C20.1205 76.0419 21.0426 74.1974 21.0426 74.0656C21.7013 72.2212 22.2283 71.299 23.0187 69.718C24.9948 65.6339 27.2343 60.7592 27.6295 55.7528C27.6295 55.6211 27.4978 55.6211 27.3661 55.4893C26.8391 55.8846 26.1804 56.0163 25.5217 56.2798C25.2583 58.3878 24.4678 59.4418 23.8091 61.1545C22.7552 63.7894 21.4378 66.1608 20.5157 68.5323C19.9887 69.718 19.9887 71.6942 18.5396 72.0895C17.8809 70.772 18.9348 69.4545 19.33 68.2688C20.7792 64.4481 22.887 60.6275 24.2043 56.8068C23.6774 56.9386 23.1504 57.0703 22.7552 57.3338C21.9648 59.837 20.7792 62.0767 19.7252 64.3164C19.33 65.1069 18.8031 65.6339 18.4079 66.2926C17.8809 67.2148 18.0126 68.5323 16.9587 69.0593C15.9048 68.2688 16.827 66.9513 17.2222 66.1608C17.6174 65.2386 18.4079 64.4481 18.8031 63.6576C19.7252 61.6814 20.6474 59.7052 21.1744 57.8608C20.6474 58.256 20.1205 58.3878 19.1983 58.3878C17.354 64.5799 13.6653 68.9275 11.4257 74.5926C18.0126 76.7006 21.7013 81.707 27.6295 84.3419C28.8152 81.4435 29.2104 78.2815 30.5278 75.3831C31.0547 74.0656 31.45 72.4847 31.9769 71.0355C32.7673 69.0593 33.8212 67.4783 33.6895 65.3704C35.5338 63.6576 36.0608 60.7592 37.3782 58.5195C35.9291 59.7052 35.1386 61.8132 33.6895 62.9989C32.6356 67.0831 30.6595 70.5085 28.9469 73.8022C28.6835 74.4609 28.8152 75.3831 27.7613 75.3831C26.9709 74.5926 27.7613 73.4069 28.1565 72.7482C29.6056 70.245 30.923 67.3466 31.8452 64.4481C30.923 64.8434 30.396 63.5259 30.1326 63.9211C28.8152 66.8196 27.4978 70.245 26.3122 73.2752C26.0487 73.9339 25.6535 76.4371 24.5996 76.0419C24.0726 75.9101 24.3361 75.1196 24.3361 74.7244C24.7313 73.2752 25.6535 71.6942 26.0487 70.5085C26.8391 68.5323 27.4978 66.2926 28.1565 64.7116C28.6835 63.5259 29.4739 62.6037 29.3421 61.0227C28.8152 60.2322 28.6835 59.0465 28.2882 58.256C27.3661 63.3942 25.1265 68.0053 23.1504 72.2212ZM51.3424 61.8132C52.1329 64.1846 52.7916 66.5561 53.582 68.9275C53.8455 69.5863 54.6359 70.6402 53.582 71.0355C52.7916 70.6402 52.5281 69.5863 52.2646 68.7958C51.3424 66.0291 50.552 63.1307 49.4981 60.6275C49.2346 61.418 48.8394 62.0767 48.4442 62.6037C49.1029 64.5799 50.1568 67.0831 50.6838 69.3228C50.8155 69.9815 51.4742 71.299 50.4203 71.5625C49.2346 70.9037 49.4981 69.0593 48.9712 67.8735C48.5759 66.5561 48.049 65.2386 47.522 64.1846C46.8633 64.8434 46.7316 65.7656 45.546 65.7656C45.9412 67.8736 47.1268 69.0593 47.2586 71.299C47.522 71.5625 48.1807 72.6164 47.522 72.8799C46.0729 72.8799 46.3364 71.299 46.0729 70.3767C45.6777 68.7958 44.6238 66.6878 43.8334 64.9751C43.3064 63.6576 42.516 62.7354 41.4621 62.2084C42.6477 65.6339 43.7016 69.191 44.4921 73.0117C43.0429 74.4609 42.9112 71.1672 42.6477 70.245C41.5938 66.8196 40.6716 62.4719 39.2225 60.2322C38.6956 60.891 38.4321 61.6814 38.0369 62.6037C38.959 64.9751 40.0129 67.8735 40.8034 70.245C41.0669 70.9037 41.989 72.0894 40.9351 72.6164C40.1447 72.4847 40.013 71.4307 39.7495 70.772C38.959 68.5323 38.1686 66.1608 37.2464 64.0529C36.983 64.7116 36.5878 65.3704 36.3243 66.0291C38.4321 69.718 40.013 73.9339 41.7255 78.1498C44.0968 78.2815 46.4681 78.1498 48.1807 77.7546C52.5281 76.7006 56.612 74.7244 59.7737 72.6164C58.5881 70.772 58.0611 68.2688 57.0072 66.1608C56.612 65.5021 56.085 64.8434 55.9533 64.1846C55.6898 63.1307 55.8215 62.2084 54.8994 61.6814C54.7676 61.2862 54.8994 61.1545 54.8994 60.7592C54.5042 60.364 53.8455 60.1005 53.4503 59.7052C54.7676 62.4719 55.5581 66.0291 56.3485 69.0593C56.4802 69.5863 57.2707 70.9037 56.085 70.9037C55.2946 70.9037 55.0311 68.664 54.7676 67.7418C53.8455 63.9211 52.3964 60.7592 51.2107 57.5973C51.079 57.5973 51.079 57.4656 50.9472 57.3338C49.8933 58.9148 50.8155 60.2322 51.3424 61.8132ZM42.516 80.5212C42.7795 81.3117 43.0429 82.1022 43.3064 82.7609C45.019 82.3657 46.3364 82.4974 48.049 82.3657C49.3664 82.234 50.9472 81.5752 52.2646 80.9165C54.7676 79.8625 56.8755 78.6768 59.3785 77.8863C59.9054 77.2276 60.6959 76.9641 61.3546 76.4371C61.2228 75.9101 61.0911 75.2514 60.6959 74.8561C55.5581 77.7546 50.552 80.5212 42.516 80.5212ZM22.6235 84.3419C18.8031 81.4435 15.3779 78.1498 10.1083 76.7006C9.71313 76.9641 9.58139 77.6228 9.31791 78.0181C10.8988 78.8085 12.2162 79.3355 13.5335 80.126C14.1922 80.5212 14.5874 81.18 15.2461 81.5752C15.6414 81.8387 16.0366 81.8387 16.4318 81.9705C18.1444 83.0244 19.33 84.6054 20.9109 85.7911C22.6235 87.1086 24.5996 87.3721 26.4439 88.426C26.5756 87.8991 26.8391 87.5038 26.8391 86.8451C25.6535 85.7911 24.2043 85.0006 22.6235 84.3419ZM66.8876 86.5816C66.6241 85.9229 65.8337 85.3959 65.4384 84.8689C65.0432 84.2102 64.9115 83.4197 64.648 82.6292C64.1211 81.3117 62.8037 80.2577 62.6719 78.6768C62.6719 78.6768 62.6719 78.545 62.5402 78.545C61.618 78.8085 61.0911 79.7308 60.1689 79.9943C59.9054 80.126 59.642 79.9943 59.3785 80.126C58.5881 80.3895 57.9294 81.0482 57.1389 81.3117C54.5042 82.3657 51.3424 84.2101 48.3125 84.4736C46.9951 84.6054 45.546 84.6054 44.0968 84.7371C44.6238 87.8991 45.8094 90.4022 46.5999 93.1689C47.6538 91.061 46.5999 86.3181 49.7616 86.9768C50.4203 87.1086 51.3424 88.1625 52.1329 88.5578C53.055 89.0848 53.9772 89.48 54.6359 90.007C56.4802 91.061 58.0611 92.3784 59.5102 93.1689C60.1689 90.4022 57.7976 84.7371 61.7498 85.2641C63.8576 86.7133 65.4384 88.8213 68.205 89.7435C67.4145 88.953 67.4145 87.6356 66.8876 86.5816ZM20.7792 88.1626C18.8031 86.9768 17.354 85.0006 15.3779 83.8149C14.9827 83.5514 14.4557 83.5514 13.9288 83.2879C13.4018 83.0244 13.1383 82.3657 12.7431 82.1022C11.5575 81.18 9.44965 80.5212 8.13227 79.9943C6.81489 82.234 5.4975 84.4736 4.04838 86.5816C5.36576 86.1863 9.84487 82.3657 10.5036 85.2641C10.767 86.7133 9.71313 88.953 9.44965 91.1927C9.31791 92.9054 9.18618 94.8816 8.79096 96.1991C10.3718 95.6721 11.0305 94.6181 12.3479 93.8277C12.7431 93.5642 13.1383 93.4324 13.6653 93.1689C14.324 92.7737 15.2461 91.061 16.1683 91.1927C17.354 91.1927 17.0905 92.5102 17.2222 93.6959C17.4857 95.8039 18.8031 97.3848 19.4618 98.9658C19.7252 98.4388 19.857 98.1753 20.3839 98.1753C22.2283 97.9118 21.9648 100.942 23.4139 101.337C24.4678 97.9118 24.9948 93.9594 25.7852 90.4022C23.9409 89.8753 22.0965 89.0848 20.7792 88.1626Z" fill="#9EAF7C"/>
<path fill-rule="evenodd" clip-rule="evenodd" d="M11.1622 7.66527C11.294 8.5875 10.767 8.85099 10.2401 9.11449C8.52748 11.4859 6.28793 14.2526 5.89271 17.8098C5.76097 18.6003 6.28793 19.9177 5.10228 20.0495C4.44359 19.6542 4.57533 18.732 4.57533 18.0733C4.97054 13.8574 8.00053 9.90497 10.3718 7.40178C10.767 7.40178 11.0305 7.40178 11.1622 7.66527Z" fill="#9EAF7C"/>
<path fill-rule="evenodd" clip-rule="evenodd" d="M6.41969 11.3542C6.15621 12.8034 5.1023 13.7256 4.83882 15.0431C4.70709 15.5701 5.1023 16.3606 4.31187 16.4923C2.59927 15.7018 4.97056 11.2224 5.76099 11.0907C6.02447 11.0907 6.15621 11.2224 6.41969 11.3542Z" fill="#9EAF7C"/>
<path fill-rule="evenodd" clip-rule="evenodd" d="M35.1386 12.6716C36.7195 12.2764 37.7734 13.3304 37.1147 14.3844C36.8512 14.7796 35.2704 15.1748 34.6117 15.0431C33.1625 14.6478 33.953 12.9351 35.1386 12.6716Z" fill="#9EAF7C"/>
<path fill-rule="evenodd" clip-rule="evenodd" d="M43.8333 15.1748C42.6477 15.7018 39.6177 15.7018 38.4321 15.1748C36.8512 12.2764 45.5459 12.2764 43.8333 15.1748Z" fill="#9EAF7C"/>
<path fill-rule="evenodd" clip-rule="evenodd" d="M30.7913 15.8336C28.6834 17.151 28.0247 18.8637 26.4439 21.1034C24.9948 23.0796 23.6774 25.1876 22.4917 27.559C21.7013 29.0082 20.9109 30.5892 20.6474 32.3019C20.5157 33.3559 20.9109 34.9369 19.33 34.8051C17.6174 34.5416 18.2761 29.667 19.1983 28.8765C19.5935 28.7448 20.1204 28.7448 20.5157 29.0082C22.0965 25.5828 23.9409 22.2892 26.1804 19.5225C25.39 18.9955 24.863 17.9415 25.9169 17.0193C26.0487 16.7558 26.9708 16.3606 27.893 15.7018C29.0787 14.7796 29.8691 13.7256 31.4499 13.5939C33.8212 13.0669 32.7673 16.0971 30.7913 15.8336Z" fill="#9EAF7C"/>
<path fill-rule="evenodd" clip-rule="evenodd" d="M50.025 15.8336C50.4203 16.2288 50.552 16.6241 50.4203 17.151C49.7616 19.259 46.4681 16.8875 45.6777 16.2288C45.8094 12.9351 48.7077 15.5701 50.025 15.8336Z" fill="#9EAF7C"/>
<path fill-rule="evenodd" clip-rule="evenodd" d="M22.2283 32.8289C21.9648 31.5114 22.7553 30.0622 23.2822 29.14C25.6535 24.7924 29.0787 21.6304 30.6596 16.3606C32.3722 15.4383 31.1865 18.0733 30.923 18.3368C30.2643 20.0495 29.6056 21.7622 28.6835 23.2114C28.1565 24.0019 27.3661 24.6606 26.8391 25.4511C25.7852 27.032 24.5996 28.7448 23.8092 30.5892C23.5457 31.5114 23.5457 33.0924 22.2283 32.8289Z" fill="#9EAF7C"/>
<path fill-rule="evenodd" clip-rule="evenodd" d="M33.6895 16.4923C33.8212 17.151 33.2943 17.4145 33.1625 17.9415C32.5038 19.3907 32.2404 21.2352 31.4499 22.6844C31.0547 23.3431 30.6595 24.0019 30.2643 24.6606C30.0008 25.1876 29.6056 26.3733 28.6834 25.9781C28.42 25.1876 29.0786 24.3971 29.4739 23.7384C29.8691 23.0796 30.1326 22.4209 30.5278 21.7622C31.3182 20.0495 31.8451 17.9415 32.7673 16.4923C32.7673 16.3606 33.0308 16.3606 33.0308 16.2288C33.426 16.0971 33.426 16.3606 33.6895 16.4923Z" fill="#9EAF7C"/>
<path fill-rule="evenodd" clip-rule="evenodd" d="M53.1868 20.5765C53.0551 22.4209 51.8694 23.8701 51.2107 25.4511C50.9472 26.2416 50.9472 27.1638 50.4203 27.8225C48.7077 27.559 50.2886 25.0558 50.6838 24.1336C51.3425 22.8162 51.8694 21.4987 52.1329 20.0495C51.7377 19.3907 51.3425 19.5225 51.3425 18.8638C51.079 15.8336 56.7437 19.786 53.1868 20.5765Z" fill="#9EAF7C"/>
<path fill-rule="evenodd" clip-rule="evenodd" d="M45.2825 42.1829C48.4442 42.0512 49.6299 42.8417 48.9712 45.7401C48.7077 47.0576 47.6538 48.2433 47.522 49.2973C48.049 49.956 48.4442 49.6925 48.4442 50.483C48.576 51.8004 46.2047 52.4592 44.8873 52.5909C43.4382 52.7227 41.989 52.5909 41.8573 51.8004C41.7256 51.01 42.6477 50.2195 42.9112 49.6925C43.5699 48.375 44.0969 46.6623 45.546 46.2671C46.3364 47.848 43.9651 48.7703 43.8334 50.483C46.0729 50.6147 46.0729 49.0338 46.8634 47.3211C47.3903 46.1353 48.4442 45.0814 46.3364 44.6861C44.3603 44.2909 41.1986 44.6861 38.6956 44.4226C38.1686 44.4226 37.5099 44.0274 37.1147 44.0274C36.456 43.8956 35.2704 44.1591 34.8752 43.8956C34.2165 43.5004 33.953 42.3147 34.8752 41.6559C35.7973 41.3924 36.8512 41.9194 38.0369 41.9194C38.3004 36.6496 38.0369 30.8527 38.1686 25.3193C37.1147 26.5051 36.1925 27.6908 34.7434 29.0082C34.0847 29.667 31.5817 31.7749 31.1865 29.7987C30.923 28.613 32.5039 27.9543 33.1626 27.2955C34.48 25.9781 35.9291 24.6606 36.8512 22.9479C37.5099 21.7622 37.2465 20.5765 38.5638 20.4447C39.486 20.313 40.4082 20.5765 41.7256 20.7082C43.3064 20.9717 44.4921 20.313 45.019 21.3669C45.2825 22.0257 45.019 23.2114 45.1508 24.3971C45.1508 25.0558 45.4142 25.7146 45.4142 26.1098C45.546 27.6908 45.4142 29.14 45.546 30.8527C45.9412 34.5416 46.2047 39.021 45.2825 42.1829ZM40.4082 41.7877C41.3303 41.7877 42.2525 41.7877 42.9112 42.0512C42.2525 39.1528 43.3064 35.9908 42.9112 32.1702C42.6477 29.2717 42.516 25.1876 42.2525 22.6844C41.3303 22.8162 40.8034 22.5527 40.1447 22.4209C40.8034 28.086 40.2764 35.7273 40.4082 41.7877Z" fill="#9EAF7C"/>
<path fill-rule="evenodd" clip-rule="evenodd" d="M21.5696 21.2352C24.4678 20.4447 22.0966 26.5051 20.384 24.5289C19.4618 23.4749 20.9109 21.3669 21.5696 21.2352Z" fill="#9EAF7C"/>
<path fill-rule="evenodd" clip-rule="evenodd" d="M58.1928 25.3193C57.9293 25.5828 57.5341 25.7146 56.8754 25.5828C55.4263 29.0083 53.1867 32.3019 52.1328 36.2543C51.8693 37.3083 51.8693 39.2845 50.2885 39.548C50.025 38.2305 50.6837 36.7813 51.0789 35.4638C52.2646 31.6432 54.5041 28.3495 55.9532 24.7924C55.8215 24.3971 55.558 24.1336 55.4263 23.7384C54.2406 25.9781 52.9233 28.2178 51.7376 30.721C51.3424 31.3797 51.3424 32.6972 50.2885 32.8289C49.4981 32.1702 50.1567 30.9845 50.552 30.3257C51.6059 28.086 53.3185 25.5828 54.2406 23.3431C54.5041 22.5527 54.3724 21.7622 55.0311 21.2352C55.8215 21.2352 55.9532 22.0257 56.8754 21.8939C57.2706 22.9479 58.7197 23.8701 58.1928 25.3193Z" fill="#9EAF7C"/>
<path fill-rule="evenodd" clip-rule="evenodd" d="M58.5881 28.2178C57.5342 30.8527 56.085 33.4876 54.8994 35.9908C54.5042 36.7813 54.5042 37.967 53.4503 38.2305C52.6598 37.44 53.4503 36.2543 53.8455 35.4638C55.0311 32.9607 56.7437 30.3257 57.5342 27.2955C57.7976 27.2955 57.7976 27.032 58.1928 27.032C57.7976 25.8463 58.4563 25.1876 58.9833 25.1876C60.5641 25.0558 62.2767 30.194 59.9054 30.0622C58.9833 30.0622 58.9833 29.0083 58.5881 28.2178Z" fill="#9EAF7C"/>
<path fill-rule="evenodd" clip-rule="evenodd" d="M79.2709 29.7987C80.1931 31.1162 80.3248 34.2781 80.0614 36.9131C79.9296 37.7035 79.6662 38.6258 79.4027 39.548C79.1392 40.4702 79.1392 41.5242 78.8757 42.4464C78.6122 43.5004 78.217 45.2131 77.0314 45.0814C76.6362 43.8956 77.5583 42.7099 77.8218 41.3924C78.3488 38.7575 79.1392 35.5956 78.744 32.0384C78.6123 31.3797 78.217 30.8527 78.4805 30.0622C78.8757 29.9305 78.8757 29.667 79.2709 29.7987Z" fill="#9EAF7C"/>
<path fill-rule="evenodd" clip-rule="evenodd" d="M82.9596 31.5114C84.277 33.3559 83.6183 37.1766 82.9596 39.6797C82.6961 40.4702 82.4327 42.9734 81.9057 43.1052C80.5883 43.3687 81.6422 40.2067 81.774 39.548C82.3009 37.5718 82.6961 35.8591 82.5644 33.7511C82.4327 33.0924 82.0375 32.4337 82.3009 31.7749C82.5644 31.6432 82.6961 31.3797 82.9596 31.5114Z" fill="#9EAF7C"/>
<path fill-rule="evenodd" clip-rule="evenodd" d="M59.115 43.1052C60.0372 42.1829 59.7737 40.2067 61.3546 40.2067C64.2528 40.3385 59.642 48.2433 58.8515 43.7639C57.9294 44.9496 56.7437 46.2671 57.1389 48.375C56.612 49.2973 53.4503 51.8004 51.6059 50.8782C50.8155 50.483 50.9472 49.0338 51.8694 48.7703C53.4503 44.5544 55.6898 41.129 57.7976 37.5718C57.9294 37.0448 57.9294 36.5178 58.4563 36.5178C60.1689 36.3861 58.0611 39.1528 58.0611 39.1528C57.6659 39.8115 57.5342 40.4702 57.2707 41.129C56.085 43.2369 53.9772 46.2671 53.1868 48.5068C54.109 48.375 55.0311 47.3211 55.9533 46.7941C57.1389 43.6321 58.8515 40.9972 59.7737 37.5718C60.0372 37.44 60.3007 37.3083 60.5641 37.44C61.0911 36.3861 60.3007 34.1464 61.2228 33.3559C64.5163 32.4337 63.3306 41.2607 60.5641 38.7575C60.1689 40.2067 59.642 41.5242 59.115 43.1052Z" fill="#9EAF7C"/>
<path fill-rule="evenodd" clip-rule="evenodd" d="M20.5157 37.5718C21.0427 38.2305 20.9109 39.1528 21.3061 40.2067C21.7013 41.129 23.6774 43.5004 21.4379 43.5004C19.857 43.6321 16.6953 37.1766 20.5157 37.5718Z" fill="#9EAF7C"/>
<path fill-rule="evenodd" clip-rule="evenodd" d="M55.6898 38.0988C56.085 38.8893 55.4263 39.2845 55.1629 39.9432C54.2407 42.0512 53.3185 44.2909 52.3964 46.5306C51.8694 47.5845 51.3424 48.6385 50.9472 49.6925C50.552 50.6147 50.0251 51.9322 48.9712 52.1957C48.049 51.2735 49.4981 49.956 49.8933 48.902C50.9472 46.5306 52.1329 44.2909 53.1868 41.9194C53.8455 40.4702 53.9772 39.021 55.0311 38.0988C55.4263 37.967 55.4263 38.0988 55.6898 38.0988Z" fill="#9EAF7C"/>
<path fill-rule="evenodd" clip-rule="evenodd" d="M31.3182 43.7639C30.396 45.0814 30.1326 47.1893 28.5517 47.848C28.42 47.7163 28.2882 47.5845 28.1565 47.4528C28.9469 46.0036 29.3421 44.2909 30.6595 43.3686C30.923 43.5004 31.1865 43.5004 31.3182 43.7639Z" fill="#9EAF7C"/>
<path fill-rule="evenodd" clip-rule="evenodd" d="M24.2044 44.9496C25.39 44.8179 25.917 46.2671 27.1026 47.1893C28.0248 47.848 29.7374 48.375 29.3422 49.6925C28.8152 51.4052 26.0487 49.2973 25.39 48.6385C24.5996 47.848 23.1505 46.7941 23.1505 46.0036C23.1505 44.9496 23.9409 44.9496 24.2044 44.9496Z" fill="#9EAF7C"/>
<path fill-rule="evenodd" clip-rule="evenodd" d="M33.2943 45.8718C33.6895 46.7941 33.1626 47.5845 32.6356 47.9798C32.3721 48.902 31.9769 49.956 31.0548 50.2195C30.923 50.0877 30.7913 49.956 30.6595 49.956C31.0548 48.2433 31.9769 47.1893 32.6356 45.7401C32.8991 45.7401 33.0308 45.8718 33.2943 45.8718Z" fill="#9EAF7C"/>
<path fill-rule="evenodd" clip-rule="evenodd" d="M35.5338 45.8718C36.456 47.321 34.7434 48.375 34.4799 49.5607C34.8751 49.6925 35.4021 49.8242 35.9291 49.956C36.7195 49.6925 37.2464 46.1353 38.3003 46.1353C39.8812 46.1353 37.6417 49.5607 37.5099 49.8242C37.9051 50.2195 38.4321 50.3512 38.4321 51.01C38.5638 53.2497 33.1625 52.0639 32.7673 50.7465C33.2943 48.7703 34.3482 47.5845 35.0069 45.7401C35.0069 45.8718 35.2704 45.8718 35.5338 45.8718Z" fill="#9EAF7C"/>
<path fill-rule="evenodd" clip-rule="evenodd" d="M42.2525 47.1893C42.2525 48.375 41.3303 49.0338 40.8034 49.956C40.4082 50.7465 40.2764 52.0639 39.0908 52.3274C39.0908 52.1957 38.9591 52.1957 38.8273 52.1957C38.4321 51.2734 39.2225 50.3512 39.6177 49.5607C40.1447 48.6385 40.6717 47.9798 41.0669 47.0576C41.1986 46.9258 41.3303 47.0576 41.3303 46.7941C41.8573 46.7941 41.989 47.0576 42.2525 47.1893Z" fill="#9EAF7C"/>
<path fill-rule="evenodd" clip-rule="evenodd" d="M11.5575 61.6814C11.6892 62.9989 10.5036 63.6576 10.1084 64.7116C9.5814 65.7656 9.31792 67.0831 8.92271 68.137C7.47358 71.6942 5.49751 75.6466 3.12622 78.6768C2.99448 79.2038 2.59927 80.2577 1.94057 79.8625C0.75493 79.2038 2.99448 77.2276 3.25796 76.8323C4.31186 75.1196 5.23403 72.8799 6.41968 70.6402C6.94663 69.5863 7.47358 68.664 7.8688 67.4783C8.79097 65.2386 9.31792 62.9989 11.0305 61.5497C11.294 61.418 11.294 61.5497 11.5575 61.6814Z" fill="#9EAF7C"/>
<path fill-rule="evenodd" clip-rule="evenodd" d="M1.28186 75.3831C1.94055 73.5387 2.99446 71.299 4.1801 69.4545C4.44358 69.0593 5.62923 66.9513 6.15618 68.2688C6.28792 68.664 5.36575 69.8498 5.10227 70.3767C4.70706 71.0355 4.31184 71.826 4.04837 72.3529C3.38967 73.8022 2.86272 76.3054 1.28186 75.3831Z" fill="#9EAF7C"/>
<path fill-rule="evenodd" clip-rule="evenodd" d="M66.8876 78.1498C66.2289 77.8863 65.5702 76.5688 66.7559 76.4371C67.5463 76.4371 67.8098 77.4911 68.205 78.2815C68.8637 79.599 69.7859 80.653 70.8398 82.4974C71.4985 83.4197 72.0254 84.0784 72.8159 85.0006C73.3428 85.6594 75.0554 87.2403 73.6063 87.5038C73.2111 87.5038 72.0254 86.0546 71.6302 85.5276C69.7859 82.8927 68.3368 80.7847 66.8876 78.1498Z" fill="#9EAF7C"/>
<path fill-rule="evenodd" clip-rule="evenodd" d="M72.5523 79.2038C72.6841 80.653 76.241 81.9705 75.0554 83.2879C74.3967 83.2879 73.0793 82.2339 72.5523 81.5752C72.0254 80.9165 70.8397 79.072 72.5523 79.2038Z" fill="#9EAF7C"/>
<path fill-rule="evenodd" clip-rule="evenodd" d="M30.6595 92.5102C30.2643 93.1689 30.396 93.6959 30.396 94.8816C30.2643 96.0674 29.7373 97.3848 29.6056 98.307C29.6056 98.834 29.7373 100.152 29.0786 100.283C27.6295 100.415 28.9469 95.9356 29.0786 95.2769C29.2104 93.6959 28.8152 92.6419 29.8691 92.115C30.396 91.9832 30.5278 92.3784 30.6595 92.5102Z" fill="#9EAF7C"/>
</g>
<defs>
<clipPath id="clip0_18_559">
<rect width="83.6538" height="102.894" fill="white" transform="translate(0.0962524 0.682693)"/>
</clipPath>
</defs>
</svg>
