<svg width="349" height="132" viewBox="0 0 349 132" fill="none" xmlns="http://www.w3.org/2000/svg">
<path d="M343.094 57.9811C343.382 63.8873 339.12 69.8641 330.838 75.6119C322.58 81.3421 310.459 86.7487 295.343 91.5366C265.119 101.11 223.038 108.175 176.267 110.45C129.497 112.725 86.9289 109.778 55.9184 103.184C40.4094 99.8856 27.82 95.6811 19.0456 90.7794C10.2442 85.8627 5.42265 80.3277 5.13534 74.4215C4.84803 68.5154 9.10962 62.5386 17.3922 56.7907C25.6493 51.0606 37.7713 45.6539 52.8869 40.8661C83.1109 31.2927 125.192 24.2278 171.962 21.9526C218.733 19.6775 261.301 22.6244 292.311 29.219C307.82 32.517 320.41 36.7216 329.184 41.6232C337.986 46.54 342.807 52.0749 343.094 57.9811Z" stroke="#9EAF7C"/>
<path d="M342.009 87.0142C341.282 92.8824 336.06 98.0419 326.916 102.288C317.8 106.521 304.932 109.774 289.22 111.905C257.804 116.166 215.134 115.926 168.665 110.166C122.195 104.405 80.7585 94.2184 51.3335 82.4153C36.6175 76.5123 24.9331 70.2157 17.1267 63.8851C9.29642 57.535 5.49294 51.2566 6.22039 45.3884C6.94784 39.5202 12.1692 34.3606 21.3131 30.1147C30.4289 25.8818 43.2971 22.6289 59.0091 20.4979C90.4254 16.2369 133.095 16.4762 179.565 22.2368C226.034 27.9974 267.471 38.1842 296.896 49.9873C311.612 55.8903 323.296 62.1869 331.103 68.5175C338.933 74.8676 342.736 81.1459 342.009 87.0142Z" stroke="#9EAF7C"/>
</svg>
