<svg width="350" height="147" viewBox="0 0 350 147" fill="none" xmlns="http://www.w3.org/2000/svg">
<path d="M341.527 44.2262C342.539 50.0521 339.045 56.5078 331.533 63.2309C324.043 69.9334 312.678 76.7902 298.267 83.4013C269.45 96.6202 228.557 108.808 182.422 116.82C136.287 124.832 93.6799 127.144 62.0937 124.415C46.2967 123.049 33.2856 120.426 23.9749 116.641C14.6356 112.844 9.16966 107.944 8.15794 102.118C7.14622 96.2924 10.6401 89.8367 18.1527 83.1136C25.6422 76.4111 37.0069 69.5542 51.4187 62.9432C80.2354 49.7243 121.128 37.5362 167.263 29.5245C213.398 21.5128 256.005 19.2005 287.592 21.93C303.389 23.295 316.4 25.9188 325.71 29.7038C335.05 33.5005 340.516 38.4002 341.527 44.2262Z" stroke="#9EAF7C"/>
<path d="M344.022 73.1716C344.022 79.0847 339.475 84.8475 330.923 90.186C322.397 95.5082 310.027 100.32 294.696 104.367C264.043 112.461 221.668 117.473 174.843 117.473C128.017 117.473 85.6422 112.461 54.9887 104.367C39.6583 100.32 27.288 95.5082 18.7622 90.186C10.2101 84.8475 5.66315 79.0847 5.66315 73.1716C5.66315 67.2585 10.2101 61.4958 18.7622 56.1572C27.288 50.835 39.6583 46.0237 54.9887 41.9759C85.6422 33.8824 128.017 28.8706 174.843 28.8706C221.668 28.8706 264.043 33.8824 294.696 41.9759C310.027 46.0237 322.397 50.835 330.923 56.1572C339.475 61.4958 344.022 67.2585 344.022 73.1716Z" stroke="#9EAF7C"/>
</svg>
