<svg width="328" height="7" viewBox="0 0 328 7" fill="none" xmlns="http://www.w3.org/2000/svg">
<path d="M164 1C172.153 1 172.153 6 180.306 6C188.459 6 188.459 1 196.611 1C204.764 1 204.764 6 212.898 6C221.051 6 221.051 1 229.185 1C237.338 1 237.338 6 245.471 6C253.624 6 253.624 1 261.777 1C269.93 1 269.93 6 278.083 6C286.235 6 286.235 1 294.388 1C302.541 1 302.541 6 310.695 6C318.847 6 318.847 1 327 1" stroke="#9EAF7C" stroke-width="2" stroke-miterlimit="10" stroke-linecap="round"/>
<path d="M1 1C9.15287 1 9.15287 6 17.3057 6C25.4586 6 25.4586 1 33.6115 1C41.7643 1 41.7643 6 49.8981 6C58.0512 6 58.0512 1 66.1847 1C74.3378 1 74.3378 6 82.4713 6C90.6244 6 90.6244 1 98.7768 1C106.93 1 106.93 6 115.083 6C123.235 6 123.235 1 131.388 1C139.541 1 139.541 6 147.694 6C155.847 6 155.847 1 164 1" stroke="#9EAF7C" stroke-width="2" stroke-miterlimit="10" stroke-linecap="round"/>
</svg>
