<svg width="242" height="7" viewBox="0 0 242 7" fill="none" xmlns="http://www.w3.org/2000/svg">
<g id="Group 5">
<path id="Waves" d="M121 1C127.002 1 127.002 6 133.004 6C139.006 6 139.006 1 145.008 1C151.011 1 151.011 6 156.999 6C163.001 6 163.001 1 168.989 1C174.991 1 174.991 6 180.979 6C186.981 6 186.981 1 192.983 1C198.985 1 198.985 6 204.987 6C210.989 6 210.989 1 216.991 1C222.994 1 222.994 6 228.996 6C234.998 6 234.998 1 241 1" stroke="#9EAF7C" stroke-width="2" stroke-miterlimit="10" stroke-linecap="round"/>
<path id="Waves_2" d="M1 1C7.00211 1 7.00211 6 13.0042 6C19.0063 6 19.0063 1 25.0085 1C31.0106 1 31.0106 6 36.9986 6C43.0009 6 43.0009 1 48.9888 1C54.991 1 54.991 6 60.9789 6C66.9811 6 66.9811 1 72.9829 1C78.9852 1 78.9852 6 84.9874 6C90.9892 6 90.9892 1 96.9915 1C102.994 1 102.994 6 108.996 6C114.998 6 114.998 1 121 1" stroke="#9EAF7C" stroke-width="2" stroke-miterlimit="10" stroke-linecap="round"/>
</g>
</svg>
