<svg width="40" height="40" viewBox="0 0 40 40" fill="none" xmlns="http://www.w3.org/2000/svg">
<circle cx="20" cy="20" r="20" fill="#00D264"/>
<g clip-path="url(#clip0_5_237)">
<path fill-rule="evenodd" clip-rule="evenodd" d="M15.5674 26.2974C15.6715 26.2678 15.7807 26.2601 15.8879 26.2748C15.9952 26.2895 16.0983 26.3262 16.1907 26.3827C17.7464 27.3096 19.5871 27.6361 21.3667 27.3009C23.1463 26.9656 24.7421 25.9917 25.8539 24.5624C26.9658 23.133 27.517 21.3466 27.4041 19.5393C27.2911 17.7319 26.5217 16.0281 25.2405 14.7483C23.9593 13.4685 22.2547 12.7009 20.4472 12.5898C18.6398 12.4788 16.854 13.032 15.4258 14.1453C13.9976 15.2587 13.0254 16.8555 12.6921 18.6354C12.3587 20.4154 12.6872 22.2558 13.6157 23.8105C13.672 23.9026 13.7086 24.0054 13.7231 24.1123C13.7377 24.2193 13.7299 24.3281 13.7002 24.4319C13.4823 25.203 12.9564 27.0436 12.9564 27.0436L15.5674 26.2974ZM12.2596 24.5919C11.1409 22.7061 10.7491 20.4768 11.1577 18.3226C11.5664 16.1684 12.7474 14.2374 14.479 12.8924C16.2106 11.5473 18.3737 10.8806 20.5621 11.0176C22.7504 11.1545 24.8135 12.0856 26.364 13.636C27.9144 15.1865 28.8455 17.2496 28.9824 19.4379C29.1194 21.6263 28.4527 23.7894 27.1076 25.521C25.7626 27.2526 23.8316 28.4336 21.6774 28.8423C19.5232 29.2509 17.2939 28.8591 15.4081 27.7404C15.4081 27.7404 12.913 28.4533 11.6774 28.8066C11.6102 28.8258 11.5392 28.8266 11.4717 28.8091C11.4041 28.7915 11.3424 28.7563 11.2931 28.7069C11.2437 28.6576 11.2085 28.5959 11.1909 28.5283C11.1734 28.4608 11.1742 28.3898 11.1934 28.3226L12.2596 24.5919Z" fill="white"/>
<path fill-rule="evenodd" clip-rule="evenodd" d="M15.6879 17.5694C15.8096 19.3214 16.5573 20.9712 17.7945 22.2177C19.0318 23.4641 20.676 24.224 22.4271 24.3587H22.4279C22.7075 24.3803 22.9884 24.3412 23.2514 24.2439C23.5144 24.1466 23.7533 23.9936 23.9515 23.7953L24.2246 23.5221C24.3535 23.3931 24.426 23.2182 24.4261 23.0358V22.4559C24.4261 22.3832 24.4058 22.312 24.3676 22.2501C24.3294 22.1883 24.2747 22.1383 24.2097 22.1058L22.4651 21.2336C22.3916 21.1968 22.3084 21.1841 22.2273 21.1972C22.1462 21.2103 22.0712 21.2487 22.0131 21.3068L21.2541 22.0658C21.2085 22.1114 21.1525 22.145 21.0908 22.1637C21.0292 22.1824 20.9639 22.1856 20.9008 22.1731L20.8972 22.1723C20.1397 22.0208 19.444 21.6485 18.8978 21.1022C18.3515 20.556 17.9792 19.8603 17.8277 19.1028L17.8269 19.0992C17.8144 19.0361 17.8176 18.9708 17.8363 18.9092C17.855 18.8475 17.8886 18.7915 17.9342 18.7459L18.6932 17.9869C18.7513 17.9288 18.7897 17.8538 18.8028 17.7727C18.8159 17.6916 18.8032 17.6084 18.7664 17.5349L17.8942 15.7903C17.8617 15.7253 17.8117 15.6706 17.7499 15.6324C17.688 15.5942 17.6168 15.5739 17.5441 15.5739H17.0511C16.934 15.5739 16.8182 15.5985 16.7113 15.6461C16.6043 15.6937 16.5085 15.7632 16.4301 15.8501L16.1703 16.1389C15.9995 16.3285 15.8685 16.5505 15.7853 16.7918C15.7021 17.033 15.6683 17.2886 15.6859 17.5432L15.6879 17.5694Z" fill="white"/>
</g>
<defs>
<clipPath id="clip0_5_237">
<rect width="18" height="18" fill="white" transform="translate(11 11)"/>
</clipPath>
</defs>
</svg>
